<?xml version="1.0" standalone="no"?>
<!DOCTYPE svg PUBLIC "-//W3C//DTD SVG 1.1//EN" "http://www.w3.org/Graphics/SVG/1.1/DTD/svg11.dtd" >
<!--
2013-9-30: Created.
-->
<svg>
<metadata>
Created by iconfont
</metadata>
<defs>

<font id="iconfont" horiz-adv-x="1024" >
  <font-face
    font-family="iconfont"
    font-weight="500"
    font-stretch="normal"
    units-per-em="1024"
    ascent="896"
    descent="-128"
  />
    <missing-glyph />
    
    <glyph glyph-name="shanchu" unicode="&#58882;" d="M344.4593 104.618c15.4235 0 27.902 12.4795 27.902 27.902L372.3613 439.441408c0 15.4225-12.4795 27.902-27.902 27.902-15.4225 0-27.902-12.4805-27.902-27.902l0-306.922496C316.5573 117.0964 329.0368 104.618 344.4593 104.618zM511.872 104.618c15.4235 0 27.902 12.4795 27.902 27.902L539.774 439.441408c0 15.4225-12.4795 27.902-27.902 27.902s-27.902-12.4805-27.902-27.902l0-306.922496C483.969 117.0964 496.4485 104.618 511.872 104.618zM679.2837 104.618c15.4235 0 27.902 12.4795 27.902 27.902L707.1857 439.441408c0 15.4225-12.4795 27.902-27.902 27.902s-27.902-12.4805-27.902-27.902l0-306.922496C651.3818 117.0964 663.8602 104.618 679.2837 104.618zM818.7935 746.3639 703.234048 746.3639c-12.4795 48.0113-55.8039 83.7059-107.6572 83.7059L428.16512 830.0698c-51.8533 0-95.1777-35.6946-107.6572-83.7059L204.949504 746.3639c-61.5526 0-111.6078-50.0828-111.6078-111.6078l0-27.902976 27.901952 0 0-27.901952 55.803904 0 0-530.138112c0-61.526 50.0552-111.6078 111.6078-111.6078l446.432256 0c61.5547 0 111.6078 50.0818 111.6078 111.6078L846.695416 578.952192l55.803904 0 0 27.901952 27.901952 0 0 27.902976C930.4013 696.2821 880.3482 746.3639 818.7935 746.3639zM428.1651 774.2659l167.411712 0c20.5445 0 38.3652-11.308 48.0389-27.902L380.127232 746.3639C389.801 762.9578 407.6206 774.2659 428.1651 774.2659zM790.8915 48.8141c0-30.7896-25.0399-55.8039-55.8039-55.8039L288.65536-6.9898c-30.763 0-59.6726 25.0143-59.6726 55.8039l3.8687 530.1381 558.040064 0L790.891524 48.81408zM149.1446 634.7561c0 30.7896 25.0419 55.8039 55.8039 55.8039L818.793472 690.56c30.7651 0 55.8039-25.0143 55.8039-55.8039L149.144576 634.7561z"  horiz-adv-x="1024" />

    
    <glyph glyph-name="54" unicode="&#58946;" d="M512 747C265.161 747 65 546.854 65 300c0-246.854 200.161-447 447-447 246.84 0 447 200.146 447 447C959 546.854 758.84 747 512 747zM512-117.2C281.952-117.2 94.8 69.952 94.8 300S281.952 717.2 512 717.2 929.2 530.048 929.2 300 742.048-117.2 512-117.2zM526.885 508.6 497.085 508.6 497.085 314.899 303.4 314.899 303.4 285.1 497.085 285.1 497.085 91.4 526.885 91.4 526.885 285.1 720.6 285.1 720.6 314.899 526.885 314.899Z"  horiz-adv-x="1024" />

    
    <glyph glyph-name="shezhi" unicode="&#58891;" d="M895.906 313.315c-84.577-22.042-147.18-99.073-147.18-190.461 0-17.456 2.324-34.783 6.846-51.495l-101.906-58.288c-36.595 37.301-87.21 59.197-140.646 59.197-53.435 0-104.051-21.901-140.641-59.197l-101.906 58.283c4.521 16.716 6.846 34.045 6.845 51.499 0 91.381-62.607 168.418-147.184 190.46l0 113.846c84.577 22.041 147.184 99.075 147.184 190.461 0 17.461-2.324 34.784-6.845 51.496l101.906 58.288c36.59-37.296 87.206-59.19 140.641-59.191 53.436 0 104.051 21.895 140.646 59.191l101.901-58.288c-4.52-16.712-6.845-34.039-6.845-51.496 0-91.385 62.607-168.419 147.184-190.461l0-113.846M945.517 270.039l0 200.397c-81.288 0-147.185 65.897-147.185 147.184 0 26.604 7.058 51.553 19.406 73.089l-176.934 101.204c-25.382-44.269-73.099-74.097-127.783-74.097-54.681 0-102.402 29.827-127.778 74.097l-176.934-101.204c12.343-21.532 19.407-46.486 19.406-73.089 0-81.288-65.897-147.184-147.185-147.184l0-200.397c81.289 0 147.185-65.897 147.185-147.185 0-26.601-7.059-51.552-19.406-73.089l176.934-101.204c25.376 44.27 73.099 74.096 127.778 74.096 54.685 0 102.407-29.825 127.784-74.096l176.935 101.205c-12.347 21.537-19.406 46.488-19.406 73.089 0 81.288 65.896 147.184 147.184 147.184l0 0 0 0zM389.002 370.234c0 68.389 55.632 124.025 124.019 124.025 68.389 0 124.024-55.636 124.024-124.025 0-68.38-55.637-124.018-124.024-124.018-68.387-0.001-124.019 55.636-124.019 124.018l0 0zM587.433 370.234c0 41.036-33.381 74.416-74.413 74.416-41.033 0-74.413-33.38-74.413-74.416 0-41.026 33.385-74.412 74.413-74.412 41.032 0 74.413 33.38 74.413 74.412l0 0zM587.433 370.234z"  horiz-adv-x="1024" />

    
    <glyph glyph-name="saoyisao" unicode="&#58889;" d="M93.595166 525.714605c-15.914458 0-28.819372 12.904914-28.819372 28.820396L64.775794 719.209528c0 63.228043 51.462069 109.117187 122.358769 109.117187l165.842119 0c15.916505 0 28.821419-12.903891 28.821419-28.821419 0-15.914458-12.904914-28.819372-28.821419-28.819372L187.134563 770.685923c-29.862121 0-64.719001-13.482059-64.719001-51.476395l0-164.674527C122.415562 538.61952 109.511671 525.714605 93.595166 525.714605zM352.976682-65.092251 187.134563-65.092251c-67.462484 0-122.358769 54.882981-122.358769 122.358769L64.775794 223.110683c0 15.901155 12.904914 28.820396 28.819372 28.820396 15.916505 0 28.820396-12.919241 28.820396-28.820396l0-165.843142c0-35.07996 29.635971-64.717977 64.719001-64.717977l165.842119 0c15.916505 0 28.821419-12.917194 28.821419-28.820396C381.798101-52.20064 368.893186-65.092251 352.976682-65.092251zM849.09804-65.092251 669.997965-65.092251c-15.914458 0-28.818349 12.891611-28.818349 28.820396 0 15.903202 12.903891 28.820396 28.818349 28.820396l179.100074 0c37.981033 0 51.462069 34.855856 51.462069 64.705698L900.560108 223.110683c0 15.901155 12.903891 28.820396 28.820396 28.820396 15.915481 0 28.820396-12.919241 28.820396-28.820396l0-165.855422C958.2009-13.643486 912.310733-65.092251 849.09804-65.092251zM929.380504 525.714605c-15.916505 0-28.820396 12.904914-28.820396 28.820396L900.560108 719.209528c0 35.117822-16.352433 51.476395-51.462069 51.476395L669.997965 770.685923c-15.914458 0-28.818349 12.904914-28.818349 28.819372 0 15.917528 12.903891 28.821419 28.818349 28.821419l179.100074 0c67.294662 0 109.10286-41.809221 109.10286-109.117187l0-164.674527C958.2009 538.61952 945.295985 525.714605 929.380504 525.714605zM785.280572 367.204475 79.185992 367.204475c-7.965415 0-14.410198 6.451946-14.410198 14.409175 0 7.958252 6.444782 14.410198 14.410198 14.410198l706.09458 0c7.963369 0 14.409175-6.451946 14.409175-14.410198C799.689746 373.656421 793.243941 367.204475 785.280572 367.204475zM943.789679 367.204475l-100.870362 0c-7.963369 0-14.409175 6.451946-14.409175 14.409175 0 7.958252 6.445806 14.410198 14.409175 14.410198l100.870362 0c7.965415 0 14.411221-6.451946 14.411221-14.410198C958.2009 373.656421 951.756117 367.204475 943.789679 367.204475z"  horiz-adv-x="1024" />

    
    <glyph glyph-name="2zaixiankefubai" unicode="&#59480;" d="M422.67234 434.110638 422.67234 508.187234c0 17.429787-17.429787 34.859574-34.859574 34.859574-17.429787 0-34.859574-17.429787-34.859574-34.859574l0-74.076596c0-17.429787 17.429787-34.859574 34.859574-34.859574C405.242553 399.251064 422.67234 416.680851 422.67234 434.110638zM1063.217021 512.544681C1010.92766 730.417021 814.842553 896 579.540426 896S152.510638 730.417021 100.221277 512.544681C39.217021 490.757447 0 425.395745 0 351.319149c0-87.148936 56.646809-156.868085 126.365957-169.940426 0 0 0 0 0 0l34.859574 0c-21.787234 52.289362-43.574468 108.93617-43.574468 204.8C117.651064 669.412766 348.595745 869.855319 579.540426 869.855319 814.842553 869.855319 1045.787234 686.842553 1045.787234 390.53617c0-165.582979-82.791489-318.093617-200.442553-400.885106-13.07234 26.144681-39.217021 47.931915-74.076596 47.931915-43.574468 0-82.791489-34.859574-82.791489-82.791489s34.859574-82.791489 82.791489-82.791489c43.574468 0 82.791489 34.859574 82.791489 82.791489 0 4.357447 0 4.357447 0 8.714894 78.434043 52.289362 143.795745 130.723404 178.655319 217.87234 69.719149 13.07234 126.365957 82.791489 126.365957 169.940426C1163.438298 425.395745 1119.86383 490.757447 1063.217021 512.544681zM810.485106 434.110638 810.485106 508.187234c0 17.429787-17.429787 34.859574-34.859574 34.859574-17.429787 0-34.859574-17.429787-34.859574-34.859574l0-74.076596c0-17.429787 17.429787-34.859574 34.859574-34.859574C793.055319 399.251064 810.485106 416.680851 810.485106 434.110638zM771.268085 220.595745C771.268085 220.595745 771.268085 220.595745 771.268085 220.595745c4.357447 4.357447 4.357447 4.357447 4.357447 8.714894 0 8.714894-4.357447 13.07234-13.07234 13.07234-4.357447 0-4.357447 0-8.714894-4.357447 0 0 0 0 0 0 0 0 0 0 0 0 0 0 0 0 0 0-43.574468-52.289362-108.93617-82.791489-174.297872-82.791489-65.361702 0-122.008511 26.144681-169.940426 78.434043 0 0 0 0 0 0C405.242553 242.382979 405.242553 242.382979 400.885106 242.382979c-8.714894 0-13.07234-4.357447-13.07234-13.07234 0-4.357447 0-8.714894 4.357447-8.714894 0 0 0 0 0 0 56.646809-65.361702 108.93617-87.148936 191.72766-87.148936C662.331915 133.446809 718.978723 159.591489 771.268085 220.595745z"  horiz-adv-x="1164" />

    
    <glyph glyph-name="jia" unicode="&#59314;" d="M512.004605 362.457358 103.689059 362.457358c-11.816117 0-21.473057 9.657964-21.473057 21.537526 0 11.864212 9.657964 21.441335 21.473057 21.441335l386.857838 0 0 386.809743c0 11.879562 9.593496 21.537526 21.457708 21.537526 11.879562 0 21.521153-9.657964 21.521153-21.537526l0-408.251078C533.525758 372.115322 523.884167 362.457358 512.004605 362.457358L512.004605 362.457358zM512.004605-45.79372c-11.864212 0-21.457708 9.561773-21.457708 21.441335L490.546897 383.994883c0 11.864212 9.593496 21.441335 21.457708 21.441335 11.879562 0 21.521153-9.577123 21.521153-21.441335l0-408.347269C533.525758-36.231947 523.884167-45.79372 512.004605-45.79372L512.004605-45.79372zM920.335501 362.457358l-300.852022 0c-11.879562 0-21.521153 9.657964-21.521153 21.537526 0 11.864212 9.641591 21.441335 21.521153 21.441335l300.852022 0c11.879562 0 21.457708-9.577123 21.457708-21.441335C941.793208 372.115322 932.215062 362.457358 920.335501 362.457358L920.335501 362.457358z"  horiz-adv-x="1024" />

    
    <glyph glyph-name="daishouhuo" unicode="&#58892;" d="M985.6 844.8l-665.6 0C298.7776 844.8 281.6 827.5968 281.6 806.4l0-153.6c-2.3552-1.0496-4.7104-2.0736-7.0144-3.3792l-242.2016-139.8272c-20.1216-11.6224-31.4112-31.0016-29.7216-47.7184C0.9984 457.5488 0 452.8896 0 448l0-384C0 42.8032 17.1776 25.6 38.4 25.6S76.8 42.8032 76.8 64L76.8 446.5152l236.1856 136.3456c3.2 1.8432 6.1696 3.9168 8.9344 6.1184C342.2208 590.0032 358.4 606.6432 358.4 627.2L358.4 768l588.8 0 0-704c0-21.1968 17.2032-38.4 38.4-38.4s38.4 17.2032 38.4 38.4l0 742.4C1024 827.5968 1006.7968 844.8 985.6 844.8zM729.6 230.4c-78.6432 0-144.4096-54.656-161.7664-128l-111.6416 0c-17.3568 73.344-83.1232 128-161.7664 128C202.496 230.4 128 155.904 128 64S202.496-102.4 294.4-102.4c78.6688 0 144.4096 54.656 161.7664 128l111.6416 0c17.3824-73.344 83.1232-128 161.7664-128 91.904 0 166.4 74.496 166.4 166.4S821.504 230.4 729.6 230.4zM294.4-25.6C244.9152-25.6 204.8 14.5152 204.8 64S244.9152 153.6 294.4 153.6s89.6-40.1152 89.6-89.6S343.8848-25.6 294.4-25.6zM729.6-25.6c-49.5104 0-89.6 40.1152-89.6 89.6s40.0896 89.6 89.6 89.6c49.4848 0 89.6-40.1152 89.6-89.6S779.0848-25.6 729.6-25.6zM358.4 499.2c0 21.1968-17.1776 38.4-38.4 38.4S281.6 520.3968 281.6 499.2L281.6 384 166.4 384C145.1776 384 128 366.7968 128 345.6S145.1776 307.2 166.4 307.2l153.6 0c21.2224 0 38.4 17.2032 38.4 38.4 0 4.5056-0.9216 8.7808-2.3552 12.8C357.4784 362.4192 358.4 366.6944 358.4 371.2L358.4 499.2z"  horiz-adv-x="1024" />

    
    <glyph glyph-name="jiantou" unicode="&#58931;" d="M313.987456-127.943672c-5.644178 0-11.313329 1.898042-15.983511 5.769049-10.589076 8.84088-12.012607 24.574648-3.196702 35.188699l378.909107 454.581042-380.832123 464.620685c-8.740982 10.663998-7.19258 26.397767 3.496393 35.13875 10.688973 8.740982 26.397767 7.167606 35.13875-3.496393l393.893649-480.579221c7.592167-9.265441 7.542219-22.601684-0.124871-31.817176l-392.145452-470.464656C328.247744-124.896816 321.130087-127.943672 313.987456-127.943672z"  horiz-adv-x="1024" />

    
    <glyph glyph-name="jiantou-copy-copy" unicode="&#58984;" d="M927.804 543.807l-415.804-415.632-415.803 415.632 63.616 63.445 352.209-352.017 352.102 352.017z"  horiz-adv-x="1024" />

    
    <glyph glyph-name="icon" unicode="&#59014;" d="M400.886343 831.366957c-17.22429 0-31.179117-13.960966-31.179117-31.179117l0-30.4188c0-17.219173 13.95585-31.179117 31.179117-31.179117s31.179117 13.960966 31.179117 31.179117L432.06546 800.187841C432.066483 817.405991 418.110633 831.366957 400.886343 831.366957zM623.457488 831.366957c-17.22429 0-31.179117-13.960966-31.179117-31.179117l0-30.4188c0-17.219173 13.95585-31.179117 31.179117-31.179117s31.179117 13.960966 31.179117 31.179117L654.636604 800.187841C654.637628 817.405991 640.681778 831.366957 623.457488 831.366957zM425.858084 668.628526c11.19497-18.015306 41.897226-48.504714 86.007863-48.504714 43.886533 0 74.975599 30.261211 86.424348 48.14451 9.205663 14.372336 5.024433 33.295314-9.226129 42.679032-14.280238 9.398044-33.534767 5.384637-43.085284-8.744151-0.132006-0.192382-13.59053-19.721157-34.112935-19.721157-19.954471 0-32.367175 18.066471-33.209356 19.335371-9.145287 14.391778-28.215622 18.781762-42.759873 9.749038C421.270603 702.482565 416.774195 683.258735 425.858084 668.628526zM356.276333 295.462524c-17.219173 0-31.179117-13.95585-31.179117-31.179117s13.960966-31.179117 31.179117-31.179117l124.713396 0 0-98.075713c0-17.22429 13.95585-31.179117 31.179117-31.179117s31.179117 13.95585 31.179117 31.179117l0 98.075713 124.718513 0c17.22429 0 31.179117 13.95585 31.179117 31.179117s-13.95585 31.179117-31.179117 31.179117L543.348985 295.462524l0 83.145675 124.718513 0c17.22429 0 31.179117 13.95585 31.179117 31.179117s-13.95585 31.179117-31.179117 31.179117l-80.628342 0 67.931159 67.931159c12.17939 12.174274 12.17939 31.915897 0 44.090171-12.17939 12.17939-31.91078 12.17939-44.090171 0l-99.106182-99.106182-99.106182 99.106182c-12.17939 12.17939-31.91078 12.17939-44.090171 0-12.17939-12.174274-12.17939-31.915897 0-44.090171l67.931159-67.931159-80.633459 0c-17.219173 0-31.179117-13.95585-31.179117-31.179117s13.960966-31.179117 31.179117-31.179117l124.713396 0 0-83.145675L356.276333 295.462524zM849.687976 675.469328l53.032844 0c17.22429 0 31.179117 13.960966 31.179117 31.179117s-13.95585 31.179117-31.179117 31.179117l-131.965567 0c-17.22429 0-31.179117-13.960966-31.179117-31.179117l0-132.173299c0-17.219173 13.95585-31.179117 31.179117-31.179117s31.179117 13.960966 31.179117 31.179117l0 60.920488c131.761929-150.887522 125.889175-380.914476-17.812691-524.625552-149.909242-149.929708-393.885905-149.939941-543.830963 0-149.934824 149.939941-149.934824 393.901255 0 543.841196 12.174274 12.174274 12.174274 31.915897-0.005117 44.095287-12.169157 12.169157-31.915897 12.174274-44.095287-0.005117-174.243463-174.248579-174.243463-457.772958 0.005117-632.021537 87.12429-87.12429 201.570855-130.686435 316.00821-130.686435 114.446565 0 228.883921 43.562145 316.00821 130.686435C994.938104 233.405143 1002.016313 500.105345 849.687976 675.469328z"  horiz-adv-x="1024" />

    
    <glyph glyph-name="jiantou1" unicode="&#58943;" d="M321.11809 830.387653 257.085728 766.990764 638.078998 383.384993 253.882779 3.007753 317.372789-60.917162 765.594207 382.862084Z"  horiz-adv-x="1024" />

    
    <glyph glyph-name="shezhi1" unicode="&#58955;" d="M697.604667 488.176946C686.959555 483.099719 682.436983 470.363984 687.492877 459.740206 698.436649 436.786017 703.9832 412.14653 703.9832 386.440399 703.9832 292.341026 627.419462 215.777288 533.320089 215.777288 439.220716 215.798621 362.656978 292.362359 362.656978 386.461732 362.656978 432.050116 380.405942 474.90789 412.639937 507.141885 444.852599 539.354547 487.710373 557.10351 533.277423 557.10351L533.320089 557.10351C558.748893 557.10351 583.239049 551.663624 606.043907 540.911848 616.731685 535.83462 629.446087 540.463857 634.437983 551.087636 639.451211 561.75408 634.907306 574.468482 624.262195 579.481711 595.697456 592.942764 565.106094 599.769288 533.320089 599.769288L533.277423 599.769288C476.31861 599.769288 422.751726 577.583084 382.475232 537.30659 342.177405 497.008762 319.9912 443.441878 319.9912 386.461732 319.9912 268.853516 415.69054 173.132843 533.320089 173.11151 650.928306 173.11151 746.648978 268.832183 746.648978 386.440399 746.648978 418.525064 739.715789 449.372422 726.041407 478.065157 720.96418 488.710269 708.271111 493.190175 697.604667 488.176946M1014.784192 292.095698C961.131976 270.784142 916.162247 232.086282 887.277515 182.103323 858.435449 132.120364 847.406346 73.838912 855.768838 16.66677 808.089831-24.889698 752.026999-57.315689 692.444241-77.77393 647.133185-41.89201 591.113018-22.265753 533.322222-22.265753 475.552759-22.265753 419.532593-41.89201 374.200204-77.77393 314.617445-57.315689 258.575946-24.889698 210.875607 16.66677 219.238099 73.817579 208.187663 132.099031 179.345597 182.103323 150.482198 232.086282 105.533801 270.762809 51.860253 292.095698 45.737714 323.369713 42.665778 355.049053 42.665778 386.451066 42.665778 417.874411 45.737714 449.553751 51.860253 480.827766 105.533801 502.160655 150.482198 540.837183 179.345597 590.820141 208.187663 640.824433 219.238099 699.105885 210.875607 756.256695 258.575946 797.813162 314.617445 830.239153 374.200204 850.697394 419.532593 814.815475 475.552759 795.189217 533.322222 795.189217 591.113018 795.189217 647.133185 814.815475 692.444241 850.697394 752.026999 830.239153 808.089831 797.813162 855.768838 756.256695 847.406346 699.084553 858.435449 640.8031 887.277515 590.820141 916.162247 540.837183 961.131976 502.139322 1014.784192 480.827766 1020.885398 449.596417 1023.978667 417.895744 1023.978667 386.451066 1023.978667 354.985055 1020.885398 323.327047 1014.784192 292.095698M1054.122039 501.286007C1052.543405 508.560522 1047.231516 514.491065 1040.191663 516.901681 991.21135 533.711998 950.017541 567.54596 924.247412 612.15303 898.498615 656.760101 889.794796 709.345672 899.714589 760.203279 901.143893 767.499127 898.690611 775.029637 893.186725 780.042866 836.291911 832.073782 767.514677 871.838287 694.342868 894.984471 687.217683 897.224425 679.452511 895.624458 673.884627 890.739226 634.802775 856.627937 584.883815 837.854995 533.322222 837.854995 481.76063 837.854995 431.84167 856.627937 392.759818 890.739226 387.170601 895.603125 379.426762 897.203092 372.301577 894.984471 299.108435 871.816954 230.352534 832.073782 173.45772 780.042866 167.975167 775.029637 165.500552 767.499127 166.929856 760.203279 176.870982 709.367005 168.14583 656.781434 142.375701 612.15303 116.626904 567.54596 75.475761 533.711998 26.452782 516.901681 19.391596 514.469732 14.122372 508.560522 12.543739 501.286007 4.202579 463.35613 0 424.722268 0 386.451066 0 348.179863 4.202579 309.546001 12.543739 271.637458 14.122372 264.34161 19.391596 258.453732 26.452782 256.021783 75.475761 239.211467 116.626904 205.377505 142.375701 160.770434 168.14583 116.142031 176.870982 63.556459 166.929856 12.698852 165.500552 5.424337 167.975167-2.106173 173.45772-7.119402 230.352534-59.150318 299.108435-98.89349 372.301577-122.061007 374.3922-122.722326 376.589488-123.063653 378.744109-123.063653 383.821337-123.063653 388.813233-121.250357 392.759818-117.815762 431.84167-83.704473 481.781963-64.93153 533.322222-64.93153 584.883815-64.93153 634.802775-83.704473 673.884627-117.815762 679.473844-122.700994 687.260349-124.343626 694.342868-122.061007 767.514677-98.914822 836.291911-59.17165 893.186725-7.119402 898.690611-2.106173 901.143893 5.424337 899.714589 12.698852 889.794796 63.577792 898.498615 116.163363 924.247412 160.770434 950.017541 205.377505 991.21135 239.211467 1040.191663 256.021783 1047.231516 258.432399 1052.543405 264.34161 1054.122039 271.637458 1062.420533 309.482003 1066.644445 348.115864 1066.644445 386.451066 1066.644445 424.786267 1062.420533 463.420129 1054.122039 501.286007"  horiz-adv-x="1067" />

    
    <glyph glyph-name="31guanzhu1xuanzhong" unicode="&#58965;" d="M697.21791 760.431372c-90.775446 0-155.800415-81.796958-183.823656-125.059274-28.053939 43.262316-93.049233 125.059274-183.822632 125.059274-130.257669 0-236.19442-117.381407-236.19442-261.648139 0-67.460438 45.757137-164.17106 101.302197-214.784808 76.835969-98.719372 292.845675-276.43082 319.512011-276.43082 27.13808 0 238.512209 174.257789 316.736804 275.247878 56.519248 51.500954 102.498442 148.344606 102.498442 215.96775C933.426657 643.050987 827.47251 760.431372 697.21791 760.431372"  horiz-adv-x="1024" />

    
    <glyph glyph-name="saoyisao1" unicode="&#58894;" d="M846.001 224.125l60.75 0 0-86.813c0-81.75-66.25-148-148.125-148l-86.75 0L671.876 50l86.75 0c48.25 0 87.375 39.125 87.375 87.313L846.001 224.125zM178.063 137.312l0 86.813L117.376 224.125l0-86.813c0-81.75 66.25-148 148-148L352.188-10.688 352.188 50l-86.813 0C217.251 50 178.063 89.125 178.063 137.312zM178.063 630.687c0 48.188 39.188 87.25 87.313 87.25L352.188 717.937l0 60.75-86.813 0c-81.75 0-148-66.25-148-148l0-86.813 60.688 0L178.063 630.687zM117.376 354l789.375 0 0 60.063L117.376 414.063 117.376 354zM758.626 778.687l-86.75 0 0-60.75 86.75 0c48.25 0 87.375-39.063 87.375-87.25l0-86.813 60.75 0 0 86.813C906.751 712.437 840.501 778.687 758.626 778.687z"  horiz-adv-x="1024" />

    
    <glyph glyph-name="scan" unicode="&#58901;" d="M1157.063 429.693h-1115.219c-23.098 0-41.844-18.746-41.844-41.844 0-23.098 18.746-41.844 41.844-41.844h1115.219c23.098 0 41.844 18.746 41.844 41.844-0 23.098-18.746 41.844-41.844 41.844v0zM434.003-44.313h-169.049c-53.727 0-97.58 43.852-97.58 97.58v161.517c0 23.098-18.746 41.844-41.844 41.844-23.098 0-41.844-18.746-41.844-41.844v-161.517c0-99.923 81.177-181.1 181.267-181.1h169.049c23.098 0 41.844 18.746 41.844 41.844-0 22.93-18.746 41.676-41.844 41.676v0zM1073.376 256.628c-23.098 0-41.844-18.746-41.844-41.844v-161.517c0-53.727-43.852-97.58-97.58-97.58l-169.049 0c-23.098 0-41.844-18.746-41.844-41.844s18.746-41.844 41.844-41.844h169.049c99.923 0 181.267 81.344 181.267 181.267v161.517c0 23.098-18.746 41.844-41.844 41.844v0zM763.23 812.313h169.049c53.727 0 97.58-43.852 97.58-97.58v-161.517c0-23.098 18.746-41.844 41.844-41.844 23.098 0 41.844 18.746 41.844 41.844l-0 161.517c0 99.923-81.344 181.267-181.267 181.267h-169.049c-23.098 0-41.844-18.746-41.844-41.844 0.167-23.098 18.746-41.844 41.844-41.844v0zM123.857 511.54c23.098 0 41.844 18.746 41.844 41.844v161.349c0 53.727 43.852 97.58 97.58 97.58h169.049c23.098 0 41.844 18.746 41.844 41.844 0 23.098-18.746 41.844-41.844 41.844h-169.049c-99.923 0-181.267-81.344-181.267-181.267v-161.517c0-23.098 18.746-41.676 41.844-41.676v0z"  horiz-adv-x="1199" />

    
    <glyph glyph-name="zaixiankefu" unicode="&#58944;" d="M894.592 261.184c-2.432 0-4.928 0.32-7.424 1.024-15.36 4.096-24.512 19.904-20.352 35.264 18.816 70.464 17.728 143.424-3.008 211.136-4.608 15.168 3.904 31.296 19.136 35.968 15.104 4.544 31.296-3.968 35.968-19.136 23.936-78.016 25.152-161.92 3.584-242.88C918.912 269.696 907.328 261.184 894.592 261.184zM204.864 444.864c-2.496 0-4.992 0.32-7.424 1.024-15.36 4.032-24.576 19.84-20.416 35.2 59.264 222.656 274.624 359.104 480.128 304.512 55.424-14.656 105.408-41.728 148.544-80.576 11.904-10.624 12.864-28.8 2.24-40.64-10.688-11.84-28.864-12.8-40.704-2.176-36.288 32.576-78.4 55.36-124.928 67.712C467.456 776.384 283.776 658.112 232.64 466.24 229.248 453.376 217.536 444.864 204.864 444.864zM121.728 169.536 121.728 169.536c-7.104 0-14.272 0.96-21.184 2.752L89.216 175.36c-20.288 5.376-37.824 18.432-47.936 35.904-9.088 15.552-11.584 33.28-7.104 49.92l49.856 187.392c7.68 29.376 36.16 49.92 69.248 49.92 7.104 0 14.336-1.024 21.312-2.88L185.6 492.736C225.856 481.92 250.624 443.456 241.024 406.848L191.104 219.52C183.36 190.144 154.816 169.536 121.728 169.536zM153.28 440.896c-6.656 0-12.48-3.008-13.568-6.976l-49.92-187.52c-0.576-2.24 0.384-4.608 1.344-6.208 2.432-4.16 7.296-7.616 12.992-9.152l11.392-3.136c8.384-2.112 18.56 1.024 19.968 6.336l49.856 187.328C186.624 426.624 180.736 434.432 170.88 437.056L159.808 439.936C157.504 440.576 155.328 440.896 153.28 440.896zM870.592-29.76 870.592-29.76c-6.976 0-14.08 0.96-20.992 2.752l-11.52 3.2c-18.432 4.8-34.496 15.936-44.992 31.168-11.2 16.384-14.848 36.16-10.048 54.528l49.856 187.456c7.744 29.312 36.224 49.856 69.248 49.856 7.104 0 14.336-0.96 21.312-2.816l11.072-2.88c40.32-10.88 65.088-49.408 55.36-86.016l-49.856-187.328C932.288-9.216 903.744-29.76 870.592-29.76zM902.144 241.536c-6.656 0-12.48-3.008-13.568-6.976l-49.856-187.456c-0.768-2.752 0.896-5.632 1.856-7.104 2.624-3.84 7.104-6.784 12.416-8.256l11.52-3.136c7.68-1.984 18.432 1.024 19.776 6.272l49.92 187.456c1.344 5.056-4.544 12.8-14.464 15.488l-11.008 2.88C906.432 241.28 904.32 241.536 902.144 241.536z"  horiz-adv-x="1024" />

    
    <glyph glyph-name="jiantou4" unicode="&#58886;" d="M256 384l512-512 0 135.776-376.224 376.224 376.224 376.256 0 135.745z"  horiz-adv-x="1024" />

    
    <glyph glyph-name="sousuo1" unicode="&#58881;" d="M976.948381-50.888761 749.532905 176.526715c28.916587 32.756031 52.169173 69.64622 69.236897 109.999276 21.116947 49.925063 31.823799 102.94358 31.823799 157.581991s-10.706853 107.657952-31.823799 157.581991c-20.390399 48.208978-49.575092 91.498924-86.745666 128.668475s-80.46052 66.355267-128.668475 86.745666C553.430598 838.221062 500.413104 848.927915 445.773669 848.927915c-54.639434 0-107.657952-10.706853-157.581991-31.823799-48.207955-20.390399-91.498924-49.576115-128.668475-86.745666-37.169551-37.169551-66.355267-80.459496-86.745666-128.668475C51.66059 551.765935 40.953737 498.747417 40.953737 444.107983S51.66059 336.451054 72.777537 286.525991c20.390399-48.207955 49.576115-91.498924 86.745666-128.668475 37.169551-37.169551 80.46052-66.35629 128.668475-86.74669 49.925063-21.116947 102.94358-31.823799 157.581991-31.823799 54.639434 0 107.657952 10.706853 157.583015 31.823799 40.352033 17.067724 77.242222 40.320311 109.998253 69.236897l227.415476-227.415476c4.995781-4.995781 11.541871-7.492648 18.090007-7.492648s13.094226 2.496867 18.090007 7.492648C986.938919-77.07619 986.938919-60.878277 976.948381-50.888761zM445.773669 90.453361c-94.464465 0-183.275163 36.786835-250.071476 103.58417-66.796312 66.795289-103.583147 155.605987-103.583147 250.071476 0 94.464465 36.786835 183.275163 103.583147 250.071476 66.796312 66.796312 155.60701 103.583147 250.071476 103.583147s183.275163-36.786835 250.071476-103.583147c66.796312-66.796312 103.583147-155.60701 103.583147-250.071476 0-92.640933-35.400255-179.829691-99.768261-246.163469-1.515516-0.974188-2.953262-2.118244-4.278443-3.444449-1.325182-1.325182-2.469238-2.762927-3.443425-4.27742C625.602338 125.854639 538.41358 90.453361 445.773669 90.453361z"  horiz-adv-x="1024" />

    
    <glyph glyph-name="shanchu1" unicode="&#58947;" d="M782.246469 655.472901c36.608779-36.608779 64.905242-79.291904 84.184331-126.794801 18.651802-45.9004 28.084639-94.451162 28.010961-144.263661 0.069585-49.808406-9.359158-98.363262-28.015054-144.260591-19.279089-47.50392-47.569412-90.189092-84.175121-126.793778-36.606733-36.606733-79.294974-64.900126-126.797871-84.179214-45.896306-18.654872-94.451162-28.084639-144.259568-28.015054-49.808406-0.069585-98.365308 9.358135-144.259568 28.015054-47.50392 19.277042-90.192162 47.569412-126.800941 84.179214-36.604686 36.603663-64.895009 79.289857-84.173075 126.793778-18.656919 45.895283-28.084639 94.452185-28.015054 144.260591-0.072655 49.812499 9.359158 98.363262 28.010961 144.263661 19.280112 47.501874 47.575552 90.186022 84.183308 126.793778 36.604686 36.604686 79.286788 64.899102 126.789685 84.178191 45.9004 18.651802 94.451162 28.084639 144.263661 28.011984 49.813522 0.072655 98.363262-9.360182 144.264685-28.011984C702.959681 720.373027 745.642806 692.077587 782.246469 655.472901M827.505255 700.731688C652.829957 875.406986 369.558335 875.406986 194.883037 700.730665 20.202623 526.05025 20.201599 242.779651 194.876897 68.104353c174.681438-174.681438 457.952037-174.679391 632.632451 0C1002.18567 242.779651 1002.18567 526.05025 827.505255 700.731688L827.505255 700.731688 827.505255 700.731688zM557.129338 382.513136 716.737476 542.12025l-45.222971 45.223994L511.906367 427.736107 352.762811 586.87864l-45.344744-45.344744 159.142533-159.143557L309.697993 225.527732l45.201481-45.201481 156.86363 156.86363 157.358911-157.356864 45.333488 45.333488L557.129338 382.513136zM714.465736 225.175715"  horiz-adv-x="1024" />

    
    <glyph glyph-name="dingwei" unicode="&#58942;" d="M516.320553 830.086277C327.473365 829.240951 174.512778 674.914838 175.350878 486.045975c0.787526-177.21493 282.974557-496.596289 315.154731-532.417865a39.737529 39.737529 0 0 1 59.440119 0.2601c31.862273 36.110576 311.202653 357.991787 310.415127 535.213942-0.838101 188.861638-155.178664 341.822225-344.040302 340.984125z m2.196402-492.860961c-76.483906-0.339575-139.009102 61.614845-139.348677 138.105976-0.339575 76.491131 61.629295 139.001877 138.105976 139.334227 76.512806 0.3468 139.023552-61.60762 139.363127-138.091526 0.339575-76.498356-61.614845-139.001877-138.120426-139.348677z"  horiz-adv-x="1024" />

    
    <glyph glyph-name="plus-add" unicode="&#59175;" d="M960 384c0-14.080-11.52-25.6-25.6-25.6h-396.8v-396.8c0-14.080-11.52-25.6-25.6-25.6s-25.6 11.52-25.6 25.6v396.8h-396.8c-14.080 0-25.6 11.52-25.6 25.6 0 14.080 11.52 25.6 25.6 25.6h396.8v396.8c0 14.080 11.52 25.6 25.6 25.6s25.6-11.52 25.6-25.6v-396.8h396.8c14.080 0 25.6-11.52 25.6-25.6z"  horiz-adv-x="1024" />

    
    <glyph glyph-name="yiwancheng" unicode="&#58912;" d="M903.111111 896H720.483556v-57.827556H903.111111a40.135111 40.135111 0 0 0 40.092445-40.092444v-828.145778a40.135111 40.135111 0 0 0-40.092445-40.092444h-782.222222a40.135111 40.135111 0 0 0-40.106667 40.092444V798.065778A40.135111 40.135111 0 0 0 120.888889 838.158222h176.881778V896H120.903111C66.901333 896 22.954667 852.067556 22.954667 798.065778v-828.145778c0-53.987556 43.946667-97.92 97.948444-97.92h782.222222a98.048 98.048 0 0 1 97.934223 97.934222V798.065778A98.062222 98.062222 0 0 1 903.111111 896zM276.352 425.856l-40.888889-40.888889 202.126222-202.140444 355.384889 355.384889-40.888889 40.888888-314.496-314.481777zM377.073778 896h269.880889v-57.827556H377.073778z"  horiz-adv-x="1024" />

    
    <glyph glyph-name="tubiaozhizuomoban" unicode="&#58887;" d="M903.2 553.6c-8.2-3.6-17.6 0.1-21.5 8.2-5.3 11-11.1 21.8-17.4 32.2-40.9 68.2-102.1 124.2-173.4 158.9-8 3.9-11.7 13.2-8.1 21.4 3.7 8.5 13.8 12.4 22.1 8.4 78.1-37.8 142.7-96.9 187.6-171.8 6.9-11.4 13.2-23.3 19.1-35.3 4-8.3 0.1-18.3-8.4-22zM939.1 399.2c-9.1 0-16.5-7.4-16.5-16.5 0-226.8-184.5-411.3-411.3-411.3S100 156 100 382.8s184.5 411.3 411.3 411.3c9.1 0 16.5 7.4 16.5 16.5s-7.4 16.5-16.5 16.5C266.4 827 67.1 627.7 67.1 382.8s199.3-444.2 444.2-444.2 444.2 199.3 444.2 444.2c0 9.1-7.3 16.4-16.4 16.4zM610 794.1m-16.5 0a16.5 16.5 0 1 1 33 0 16.5 16.5 0 1 1-33 0ZM922.6 481.5m-16.5 0a16.5 16.5 0 1 1 33 0 16.5 16.5 0 1 1-33 0ZM501.3 187.8h-1.2c-15.1 0.5-28.9 9.7-42 28.3L333.9 368c-19.6 24-28.7 56.2-24.1 86.1 3.4 22.6 17.7 46 28.9 59 35.7 34.4 84.9 35.5 120.7 3.9l40.2-35.5 33.4 32.3c35.3 34.7 85.7 36.2 122.7 3.7 16.6-14.7 28.2-35.9 32.5-59.8 5.4-30-2.8-62.7-22-87.5l-119-153.6c-10-12.5-25.5-28.8-45.9-28.8zM401 506.9c-13.6 0-27.1-5.5-38.4-16.4-7.6-9-18.1-26.7-20.3-41.4-3.1-20.8 3.2-43.4 17.1-60.3l125.2-153.3c9.5-13.6 15-14.8 16.5-14.9 1.4-0.2 7.9 0.9 20.3 16.3l118.8 153.3c13.4 17.3 19.4 40.8 15.6 61.4-3 16.7-10.8 31.3-21.9 41-23.8 21-55.1 20-77.8-2.4l-32.8-32.3c-12.9-12.7-32-13.2-45.5-1.3l-40.2 35.5c-11 9.9-23.9 14.8-36.6 14.8z"  horiz-adv-x="1024" />

    
    <glyph glyph-name="wode" unicode="&#58884;" d="M513.023306 494.933555m-149.158135 0a149.158135 149.158135 0 1 1 298.31627 0 149.158135 149.158135 0 1 1-298.31627 0ZM513.023306 830.540126c-247.133563 0-447.474404-200.340841-447.474404-447.474405S265.889743-64.408683 513.023306-64.408683s447.474404 200.340841 447.474405 447.474404S760.155846 830.540126 513.023306 830.540126z m272.202519-754.331188c4.88424 20.698414 7.468089 42.284035 7.468089 64.474431 0 100.883665-53.416584 189.292204-133.508714 238.484579-34.151821-43.062771-86.931908-70.681806-146.161894-70.681806s-112.010073 27.619034-146.162917 70.680783C286.767236 329.975573 233.351676 241.567034 233.351676 140.683369c0-22.189372 2.583848-43.776016 7.468088-64.474431-84.643796 75.140351-137.981584 184.76919-137.981584 306.85576 0 226.538503 183.6456 410.185126 410.185126 410.185127S923.207409 609.604224 923.207409 383.065721c0-122.086569-53.336766-231.716432-137.981584-306.856783z"  horiz-adv-x="1024" />

    
    <glyph glyph-name="shanchu2" unicode="&#58917;" d="M512 896c-283.105882 0-512-228.894118-512-512s228.894118-512 512-512 512 228.894118 512 512S795.105882 896 512 896z m222.870588-644.517647c24.094118-24.094118 24.094118-66.258824 0-90.352941-24.094118-24.094118-66.258824-24.094118-90.352941 0l-132.517647 132.517647-132.517647-138.541177c-24.094118-24.094118-66.258824-24.094118-90.352941 0-12.047059 18.070588-18.070588 30.117647-18.070588 48.188236s6.023529 36.141176 18.070588 48.188235l132.517647 132.517647-132.517647 126.494118c-12.047059 18.070588-18.070588 30.117647-18.070588 48.188235 0 18.070588 6.023529 36.141176 18.070588 48.188235 24.094118 24.094118 66.258824 24.094118 90.352941 0l132.517647-132.517647 132.517647 132.517647c24.094118 24.094118 66.258824 24.094118 90.352941 0 24.094118-24.094118 24.094118-66.258824 0-90.352941l-132.517647-132.517647 132.517647-132.517647z"  horiz-adv-x="1024" />

    
    <glyph glyph-name="qicheqianlian-" unicode="&#58913;" d="M908.629 152.235h-650.752c-19.285 0-37.376 7.509-50.859 21.163-13.483 13.653-20.992 31.573-20.821 50.859l2.389 479.232c0 19.115-6.656 31.915-39.765 37.205h-0.171l-95.573 16.384c-9.216 1.536-15.531 10.411-13.995 19.627 1.536 9.216 10.411 15.531 19.627 13.995l95.403-16.384c45.397-7.168 68.437-31.061 68.437-70.997l-2.389-479.403c0-10.069 3.755-19.456 10.923-26.453 7.168-7.168 16.555-11.093 26.624-11.093h650.752c9.387 0 17.067-7.68 17.067-17.067s-7.509-17.067-16.896-17.067zM859.989 250.197l-602.624 1.877c-18.944 0.171-36.693 7.509-50.005 20.992s-20.48 31.232-20.48 50.176l1.877 353.963 681.813-50.859c30.891-1.195 55.125-26.283 55.125-57.173v-253.44c0-36.181-29.525-65.536-65.707-65.536zM257.707 286.208l602.453-1.877c17.408 0 31.573 14.165 31.573 31.403v253.44c0 12.459-9.899 22.699-22.357 23.040h-0.683l-645.632 48.128-1.536-317.44c0-9.728 3.755-18.944 10.581-25.941 6.485-6.827 15.701-10.752 25.6-10.752zM260.437 95.915c0-35.158 28.501-63.659 63.659-63.659s63.659 28.501 63.659 63.659c0 0 0 0 0 0 0 35.158-28.501 63.659-63.659 63.659-35.158 0-63.659-28.501-63.659-63.659 0-0 0-0 0-0zM324.096 15.189c-44.544 0-80.725 36.181-80.725 80.725s36.181 80.725 80.725 80.725c44.544 0 80.725-36.181 80.725-80.725s-36.181-80.725-80.725-80.725zM324.096 142.507c-25.771 0-46.592-20.821-46.592-46.592s20.821-46.592 46.592-46.592 46.592 20.821 46.592 46.592-20.821 46.592-46.592 46.592zM749.056 95.915c-0-0.002-0-0.005-0-0.008 0-35.158 28.501-63.659 63.659-63.659 35.158 0 63.659 28.501 63.659 63.659 0 0.003-0 0.006-0 0.008 0 0.002 0 0.005 0 0.008 0 35.158-28.501 63.659-63.659 63.659-35.158 0-63.659-28.501-63.659-63.659 0-0.003 0-0.006 0-0.008zM812.715 15.189c-44.544 0-80.725 36.181-80.725 80.725s36.181 80.725 80.725 80.725 80.725-36.181 80.725-80.725-36.181-80.725-80.725-80.725zM812.715 142.507c-25.771 0-46.592-20.821-46.592-46.592s20.821-46.592 46.592-46.592 46.592 20.821 46.592 46.592-20.821 46.592-46.592 46.592zM710.315 478.037h-347.819c-9.387 0-17.067 7.68-17.067 17.067s7.68 17.067 17.067 17.067h347.819c9.387 0 17.067-7.68 17.067-17.067s-7.68-17.067-17.067-17.067zM710.315 379.904h-347.819c-9.387 0-17.067 7.68-17.067 17.067s7.68 17.067 17.067 17.067h347.819c9.387 0 17.067-7.68 17.067-17.067s-7.68-17.067-17.067-17.067z"  horiz-adv-x="1024" />

    
    <glyph glyph-name="shouye" unicode="&#58914;" d="M994.56 484.053333l-469.333333 384h-1.92l-3.84 2.133334-3.626667 1.066666L512 872.533333h-3.84l-3.84-1.066666-3.84-1.92h-1.92l-469.333333-384a21.333333 21.333333 0 1 1 27.093333-33.066667L512 823.893333l455.68-372.906666a21.333333 21.333333 0 1 1 27.093333 33.066666zM853.333333 446.293333a21.333333 21.333333 0 0 1-21.333333-21.333333v-490.666667h-170.666667v298.666667a21.333333 21.333333 0 0 1-21.333333 21.333333H384a21.333333 21.333333 0 0 1-21.333333-21.333333v-298.666667H192v490.666667a21.333333 21.333333 0 0 1-42.666667 0v-512a21.333333 21.333333 0 0 1 21.333334-21.333333h213.333333a21.333333 21.333333 0 0 1 21.333333 21.333333v298.666667h213.333334v-298.666667a21.333333 21.333333 0 0 1 21.333333-21.333333h213.333333a21.333333 21.333333 0 0 1 21.333334 21.333333v512a21.333333 21.333333 0 0 1-21.333334 21.333333zM704 403.626667a21.333333 21.333333 0 0 1 0 42.666666h-128a21.333333 21.333333 0 0 1 0-42.666666zM490.666667 403.626667a21.333333 21.333333 0 0 1 0 42.666666h-85.333334a21.333333 21.333333 0 0 1 0-42.666666zM302.08 413.013333a35.84 35.84 0 0 1 2.56-3.2 21.333333 21.333333 0 0 1 7.04-4.48 20.053333 20.053333 0 0 1 16.213333 0 21.333333 21.333333 0 0 1 7.04 4.48l2.56 3.2a16.64 16.64 0 0 1 1.92 3.84 13.226667 13.226667 0 0 1 1.28 3.84 29.653333 29.653333 0 0 1 0 4.266667 22.4 22.4 0 0 1-6.186666 15.146667 21.333333 21.333333 0 0 1-23.253334 4.48 21.333333 21.333333 0 0 1-7.04-4.48 21.333333 21.333333 0 0 1-6.186666-15.146667 32.64 32.64 0 0 1 0-4.266667 13.866667 13.866667 0 0 1 1.28-3.84 15.786667 15.786667 0 0 1 2.773333-3.84z"  horiz-adv-x="1024" />

    
    <glyph glyph-name="tuikuan" unicode="&#58915;" d="M755.392 360.512H463.296a24.32 24.32 0 1 0 0 48.64h292.032a194.944 194.944 0 0 1 194.752 194.752 24.32 24.32 0 1 0 48.704 0 243.648 243.648 0 0 0-243.392-243.392zM842.752-126.4H195.584a170.688 170.688 0 0 0-170.368 170.496V725.632A170.56 170.56 0 0 0 195.584 896h634.688a168.704 168.704 0 0 0 168.576-168.512v-123.584a24.32 24.32 0 1 0-48.704 0V727.488A119.936 119.936 0 0 1 830.272 847.296H195.584a121.792 121.792 0 0 1-121.664-121.664V44.16c0-67.136 54.656-121.728 121.664-121.728h647.168a107.52 107.52 0 0 1 107.392 107.328v111.808a24.32 24.32 0 1 0 48.704 0v-111.808a156.352 156.352 0 0 0-156.096-156.16zM577.472 214.528a24.384 24.384 0 0 0-17.28 7.04L440.064 341.76a60.48 60.48 0 0 0 0 86.144l120.128 120.128a24.192 24.192 0 0 0 34.368 0 24.384 24.384 0 0 0 0-34.432L474.496 393.536a12.288 12.288 0 0 1 0-17.28l120.128-120.192a24.192 24.192 0 1 0-17.152-41.536z"  horiz-adv-x="1024" />

    
    <glyph glyph-name="jia2" unicode="&#58898;" d="M882.2 540.4c-20.2 47.8-49.2 90.8-86.1 127.7-36.9 36.9-79.9 65.9-127.7 86.1-49.5 21-102.2 31.6-156.4 31.6s-106.9-10.6-156.4-31.6c-47.9-20.2-90.8-49.2-127.7-86.1-36.9-36.9-65.9-79.9-86.1-127.7-21-49.6-31.6-102.2-31.6-156.4s10.6-106.9 31.6-156.4c20.2-47.8 49.2-90.8 86.1-127.7 36.9-36.9 79.9-65.9 127.7-86.1 49.5-21 102.2-31.6 156.4-31.6s106.9 10.6 156.4 31.6c47.9 20.2 90.8 49.2 127.7 86.1 36.9 36.9 65.9 79.9 86.1 127.7 21 49.5 31.6 102.2 31.6 156.4s-10.6 106.9-31.6 156.4zM512 18.2c-201.7 0-365.8 164.1-365.8 365.8 0 201.7 164.1 365.8 365.8 365.8 201.7 0 365.8-164.1 365.8-365.8 0-201.7-164.1-365.8-365.8-365.8zM752.8 383.8c0-9.9-8.1-18-18-18H530.2v-204.6c0-9.9-8.1-18-18-18s-18 8.1-18 18V365.8H289.6c-9.9 0-18 8.1-18 18s8.1 18 18 18h204.6V606.4c0 9.9 8.1 18 18 18s18-8.1 18-18v-204.6h204.6c9.9 0 18-8 18-18z"  horiz-adv-x="1024" />

    
    <glyph glyph-name="shanchu3" unicode="&#58926;" d="M837.818182 570.181818h-209.454546c13.963636 0 23.272727-9.309091 23.272728-23.272727v-418.909091c0-13.963636-9.309091-23.272727-23.272728-23.272727s-23.272727 9.309091-23.272727 23.272727V546.909091c0 13.963636 9.309091 23.272727 23.272727 23.272727H395.636364c13.963636 0 23.272727-9.309091 23.272727-23.272727v-418.909091c0-13.963636-9.309091-23.272727-23.272727-23.272727s-23.272727 9.309091-23.272728 23.272727V546.909091c0 13.963636 9.309091 23.272727 23.272728 23.272727H186.181818c-13.963636 0-23.272727-9.309091-23.272727-23.272727v-581.818182c0-51.2 41.890909-93.090909 93.090909-93.090909h512c51.2 0 93.090909 41.890909 93.090909 93.090909V546.909091c0 13.963636-9.309091 23.272727-23.272727 23.272727zM954.181818 709.818182h-162.909091V802.909091c0 51.2-41.890909 93.090909-93.090909 93.090909H325.818182c-51.2 0-93.090909-41.890909-93.090909-93.090909v-93.090909H69.818182c-13.963636 0-23.272727-9.309091-23.272727-23.272727s9.309091-23.272727 23.272727-23.272728h884.363636c13.963636 0 23.272727 9.309091 23.272727 23.272728s-9.309091 23.272727-23.272727 23.272727z"  horiz-adv-x="1024" />

    
    <glyph glyph-name="changjingguanli" unicode="&#60257;" d="M592 560h-416c-52.928 0-96-43.072-96-96v-416c0-52.928 43.072-96 96-96h416c52.928 0 96 43.072 96 96v416c0 52.928-43.072 96-96 96z m32-512a32 32 0 0 0-32-32h-416c-17.632 0-32 14.336-32 32v416c0 17.632 14.368 32 32 32h416c17.664 0 32-14.368 32-32v-416zM720 688h-416a32 32 0 0 1 0-64h416c17.664 0 32-14.368 32-32v-416a32 32 0 1 1 64 0v416c0 52.928-43.072 96-96 96zM528 144h-288a32 32 0 1 1 0-64h288a32 32 0 1 1 0 64zM848 816h-416a32 32 0 0 1 0-64h416c17.664 0 32-14.368 32-32v-416a32 32 0 1 1 64 0v416c0 52.928-43.072 96-96 96z"  horiz-adv-x="1024" />

    
    <glyph glyph-name="jiantou3" unicode="&#58900;" d="M512 896c-281.6 0-512-230.4-512-512s230.4-512 512-512 512 230.4 512 512-230.4 512-512 512z m0-938.666667c-234.666667 0-426.666667 192-426.666667 426.666667s192 426.666667 426.666667 426.666667 426.666667-192 426.666667-426.666667-192-426.666667-426.666667-426.666667zM793.6 499.2c-17.066667 17.066667-42.666667 17.066667-59.733333 0l-221.866667-221.866667-221.866667 221.866667c-17.066667 17.066667-42.666667 17.066667-59.733333 0-17.066667-17.066667-17.066667-42.666667 0-59.733333l251.733333-251.733334c17.066667-17.066667 42.666667-17.066667 59.733334 0l251.733333 251.733334c17.066667 12.8 17.066667 42.666667 0 59.733333z"  horiz-adv-x="1024" />

    
    <glyph glyph-name="guanzhu-" unicode="&#58888;" d="M925.9 549.1c-28.1 60.8-60 100.3-121 128l-0.1-1.4c-0.8 0.3-1.5 2.2-2.3 2.5-62.4 27.1-129.1 31.7-187.9 15.5-29.3-8.1-43.4-10.3-65.2-28.6-8.3-6.9-17-14.5-24.4-22.6-6.3-6.8-16.9-7.2-23.6-0.8-30.9 29.7-87.2 52.7-125.4 59.3-52.4 9-112.8-3.5-172.1-38.1-35.4-20.8-66.4-47.7-89.7-77.6-25.5-32.8-39.7-74.9-43.9-110.4-4.4-36.8 3.2-72.7 22.2-106.2l9.7-15.4c8.6-12.5 18.9-24.7 30.9-36.4L404.7-3l0.9-1c25.6-26.4 63.6-42.2 101.9-42.2 34 0 64.6 12.3 86.1 34.5l0.3 0.3s308.6 345.2 324.2 365.3c16.2 21.1 52.9 97.8 7.8 195.2zM564.5 15.9c-13.9-14.2-34.2-22-57-22-27.4 0-54.5 11-72.7 29.5L133.6 378.2c-19.5 29.1-27.4 59.9-23.6 92 3.4 28.3 16.3 57.5 37.3 84.6 20.2 26 45.8 55.4 76.8 73.7 51 29.7 102.1 40.6 145.1 33.2 29.6-5.1 108.6-56.7 132.8-78.8 6.9-6.2 17.4-5.9 23.8 0.8 22.6 23.7 59.8 58.4 99.4 69.3 50 13.7 107.3 10.9 161.3-12.6 0.6-0.3 1.2-0.8 1.8-1.1 51.3-23.3 80.1-51.7 100.1-104.3 18.6-48.8 18.6-101.7 0.3-150.2L564.5 15.9z"  horiz-adv-x="1024" />

    
    <glyph glyph-name="jiantou5" unicode="&#58893;" d="M989.866667 413.866667L597.333333 785.066667c-17.066667 17.066667-42.666667 17.066667-59.733333 0-17.066667-17.066667-17.066667-42.666667 0-59.733334l315.733333-298.666666H64c-25.6 0-42.666667-17.066667-42.666667-42.666667s17.066667-42.666667 42.666667-42.666667H853.333333l-315.733333-298.666666c-17.066667-17.066667-17.066667-42.666667 0-59.733334 8.533333-8.533333 21.333333-12.8 29.866667-12.8 8.533333 0 21.333333 4.266667 29.866666 12.8l392.533334 371.2c8.533333 8.533333 12.8 21.333333 12.8 29.866667s-4.266667 21.333333-12.8 29.866667z"  horiz-adv-x="1024" />

    
    <glyph glyph-name="daifukuan" unicode="&#58885;" d="M60.235294 655.058824v-722.82353h903.529412V655.058824H60.235294z m0 60.235294h903.529412a60.235294 60.235294 0 0 0 60.235294-60.235294v-722.82353a60.235294 60.235294 0 0 0-60.235294-60.235294H60.235294a60.235294 60.235294 0 0 0-60.235294 60.235294V655.058824a60.235294 60.235294 0 0 0 60.235294 60.235294z m903.529412-331.294118h-180.705882v-180.705882h180.705882v180.705882z m-180.705882 60.235294h240.941176v-301.17647h-240.941176a60.235294 60.235294 0 0 0-60.235295 60.235294v180.705882a60.235294 60.235294 0 0 0 60.235295 60.235294z m-60.235295 271.058824V826.88L295.002353 715.294118H722.823529z m-670.177882-0.993883l692.705882 180.705883A30.117647 30.117647 0 0 0 783.058824 865.882353v-180.705882a30.117647 30.117647 0 0 0-30.117648-30.117647H60.235294C24.907294 655.058824 18.432 705.415529 52.645647 714.330353z"  horiz-adv-x="1024" />

    
    <glyph glyph-name="tuya_huabanfuben" unicode="&#59228;" d="M948.18 823.35C925.09 838.5 906.16 830 880.46 826c-88.51-13.83-174.19-33.06-264-42.17-86-8.72-226.79 6.44-297.32-51.25-8.87-7.26-9.72-22.74-4.14-32.06 26.94-45 73.7-74.63 101.8-119.59 42.63-68.24-10-97-63.21-149.24-44.77-44-91.5-87.33-136.65-132.19a22.18 22.18 0 0 1-17.33-5.5C146.37 248.87 68.13 191.15 48.59 122c-2.79-9.89-0.07-22.18 7.72-29.22C120 35.29 229.84-102.2 319.89-53.9c43.93 23.56 82.25 82.43 117.2 117.52 46.09 46.29 94.73 89.92 142 134.93 14.18 13.45 77.26 97.32 98.23 99.45 47.74 5 84.22-66.23 115.51-92.95 15.3-13.07 41.43-13.5 51.93 6.69 25.38 48.78 26.47 103.8 37.26 157.53 17.26 85.89 41.1 170.43 61.62 255.59 12.22 50.78 64.63 159.06 4.54 198.49zM900.92 709c-1.71-50-26.85-109.45-39.39-157.95-20.28-78.4-26-182-54.87-262.49-20.64 24.93-44.32 53.25-70.09 71.06q11.36 28.38 25.13 55.69c3.24 6.45-6.39 12.15-9.72 5.68-9.24-17.93-17.75-36.18-25.7-54.67-9.67 5.4-19.6 9.15-29.77 10.42 11.71 24 19.91 50.7 22.39 76.35 0.72 7.4-10.61 7.2-11.47 0-3.36-28.25-15.77-51.89-27.33-76.64-14.76-3-31.2-13-48.07-27.21 14.7 30.41 30.33 61.27 32.71 95.11 0.36 5.17-7.49 5-8 0-4-40-27.68-75.21-44.64-110.67a5.08 5.08 0 0 1-0.13-2.85c-38.53-37.89-75.77-87.65-94.44-105.3-39.22-37.08-78.18-74.3-116.51-112.22 4.21 25.37 7.66 50.88 11.42 76.33 1 6.56-9.06 9.42-10.07 2.78-4.77-31.43-9.12-62.78-16.15-93.76-7.09-7.12-14.4-14-21.42-21.21-48.34-49.71-69-72.05-125.49-45.13 16.47 45.38 22.35 93.09 32.77 140 1.28 5.76-7.38 8.22-8.88 2.45-11.9-45.53-19.83-92-36.08-136.33-1.44 0.79-2.59 1.2-4.07 2-9.29 5.29-23.33 13.55-37.57 23 5 12 7.65 24.7 11.43 37.45 7.16 24.18 20 45.88 23.46 71.17 0.91 6.66-9.22 9.64-10.27 2.83-3.55-23.08-14.94-42.88-22.67-64.61-4.69-13.21-7.37-26.85-12.59-39.55-18.19 12.94-34.79 27.28-39.85 39.46-6.17 14.83-5 30 0.66 44.86 58.15 38.39 110.88 105.76 159 149.5 60.1 54.8 171.77 122.21 206.35 196.32 8.77 18.78 13.66 32.93 8.48 53.36-10.17 40.15-135.12 122.5-127.54 152.77 3.63 14.5 411.87 49.35 470.35 52.82 65.71 3.91 50.43 1.81 48.63-50.82zM334.33 182.3c0.8 7.1-10.16 6.93-11.06 0-3-22.94-14.28-43.53-17-66.43-2.46-21 3-42.44-9.9-61-5.32-7.61 7.05-14.64 12.37-7.23 12 16.65 10.48 34.55 10.08 54.27-0.54 27.97 12.41 52.94 15.51 80.39z"  horiz-adv-x="1024" />

    
    <glyph glyph-name="shezhi2" unicode="&#58918;" d="M174.824727 642.792727l-56.180363-97.28 67.095272-38.749091-10.589091-49.640727a343.435636 343.435636 0 0 1-7.51709-71.726545c0-24.366545 2.536727-48.337455 7.51709-71.703273l10.589091-49.664-67.095272-38.725818L174.824727 128l67.025455 38.679273 37.748363-34.280728a341.341091 341.341091 0 0 1 125.184-72.517818l48.453819-15.546182v-76.450909h112.360727v76.450909l48.453818 15.546182a341.341091 341.341091 0 0 1 125.207273 72.517818l37.701818 34.280728L844.008727 128l56.180364 97.28-67.095273 38.749091 10.589091 49.664c4.980364 23.365818 7.517091 47.336727 7.517091 71.703273 0 24.366545-2.536727 48.360727-7.517091 71.726545l-10.589091 49.640727 67.095273 38.749091-56.180364 97.28-67.025454-38.702545-37.748364 34.304a341.341091 341.341091 0 0 1-125.184 72.494545l-48.453818 15.569455V802.909091h-112.360727v-76.450909l-48.453819-15.569455a341.341091 341.341091 0 0 1-125.207272-72.494545l-37.701818-34.304-67.048728 38.725818z m208.593455 183.226182c0 25.786182 20.619636 46.708364 46.522182 46.708364h158.952727c25.693091 0 46.522182-20.898909 46.522182-46.708364v-48.64a411.182545 411.182545 0 0 0 150.807272-87.342545l42.891637 24.785454a46.475636 46.475636 0 0 0 63.720727-16.919273l79.476364-137.658181c12.846545-22.248727 5.143273-50.734545-17.198546-63.650909l-43.147636-24.901819c5.934545-27.834182 9.076364-56.692364 9.076364-86.295272 0-29.579636-3.141818-58.461091-9.076364-86.272l43.147636-24.901819c22.341818-12.916364 30.138182-41.216 17.198546-63.650909l-79.476364-137.658181a46.592 46.592 0 0 0-63.720727-16.942546l-42.914909 24.785455a411.182545 411.182545 0 0 0-150.807273-87.319273v-48.64a46.475636 46.475636 0 0 0-46.498909-46.708364h-158.952727a46.592 46.592 0 0 0-46.522182 46.708364v48.64a411.182545 411.182545 0 0 0-150.807273 87.319273l-42.891636-24.785455a46.475636 46.475636 0 0 0-63.720728 16.942546L46.545455 210.571636a46.592 46.592 0 0 0 17.198545 63.627637l43.147636 24.901818a413.253818 413.253818 0 0 0-9.053091 86.295273c0 29.602909 3.118545 58.461091 9.076364 86.295272l-43.170909 24.901819a46.475636 46.475636 0 0 0-17.198545 63.650909l79.476363 137.658181a46.592 46.592 0 0 0 63.720727 16.919273L232.634182 690.036364a411.182545 411.182545 0 0 0 150.807273 87.319272V826.018909zM510.603636 188.043636a197.352727 197.352727 0 1 0 0 394.705455 197.352727 197.352727 0 0 0 0-394.705455z m0 69.818182a127.534545 127.534545 0 1 1 0 255.069091 127.534545 127.534545 0 0 1 0-255.069091z"  horiz-adv-x="1024" />

    
    <glyph glyph-name="icon_add" unicode="&#60303;" d="M542.308283 415.999808H926.290631c17.672498 0 31.998785-14.326287 31.998785-31.998785s-14.326287-31.998785-31.998785-31.998785H542.308283v-383.981324c0-17.672498-14.326287-31.998785-31.998785-31.998785s-31.998785 14.326287-31.998785 31.998785V352.003262H94.330412c-17.672498 0-31.998785 14.326287-31.998785 31.998785s14.326287 31.998785 31.998785 31.998784h383.981325V799.981133c0 17.672498 14.326287 31.998785 31.998784 31.998785s31.998785-14.326287 31.998785-31.998785v-383.981325z"  horiz-adv-x="1024" />

    
    <glyph glyph-name="icon_calendar" unicode="&#60305;" d="M767.987209 352.001215h-63.996547c-17.672498 0-31.998785-14.326287-31.998784-31.998785s14.326287-31.998785 31.998784-31.998784h63.996547c17.672498 0 31.998785 14.326287 31.998784 31.998784s-14.326287 31.998785-31.998784 31.998785zM256.011768 352.001215c-17.672498 0-31.998785-14.326287-31.998785-31.998785s14.326287-31.998785 31.998785-31.998784h287.985994c17.672498 0 31.998785 14.326287 31.998784 31.998784s-14.326287 31.998785-31.998784 31.998785H256.011768zM767.987209 511.994116H256.011768c-17.672498 0-31.998785-14.326287-31.998785-31.998785s14.326287-31.998785 31.998785-31.998785h511.975441c17.672498 0 31.998785 14.326287 31.998784 31.998785s-14.326287 31.998785-31.998784 31.998785zM863.98254 767.981325h-63.996547c-17.672498 0-31.998785-14.326287-31.998784-31.998785s14.326287-31.998785 31.998784-31.998785h63.996547c17.672498 0 31.998785-14.326287 31.998785-31.998785v-639.969556c0-17.672498-14.326287-31.998785-31.998785-31.998785H160.016437c-17.672498 0-31.998785 14.326287-31.998785 31.998785V671.985993c0 17.672498 14.326287 31.998785 31.998785 31.998785h63.996546c17.672498 0 31.998785 14.326287 31.998785 31.998785s-14.326287 31.998785-31.998785 31.998785h-63.996546c-53.016471 0-95.995331-42.97886-95.995331-95.995331v-639.969557c0-53.016471 42.97886-95.995331 95.995331-95.995331h703.966103c53.016471 0 95.995331 42.97886 95.995331 95.995331V671.985993c0 53.017494-42.977837 95.995331-95.995331 95.995332zM320.009338 639.988232c17.672498 0 31.998785 14.326287 31.998784 31.998785V799.980109c0 17.672498-14.326287 31.998785-31.998784 31.998785s-31.998785-14.326287-31.998785-31.998785v-127.994116c0-17.671475 14.326287-31.997762 31.998785-31.997761zM416.004669 703.984778h191.990662c17.672498 0 31.998785 14.326287 31.998785 31.998785s-14.326287 31.998785-31.998785 31.998785H416.004669c-17.672498 0-31.998785-14.326287-31.998785-31.998785s14.326287-31.998785 31.998785-31.998785zM703.990662 639.988232c17.672498 0 31.998785 14.326287 31.998785 31.998785V799.980109c0 17.672498-14.326287 31.998785-31.998785 31.998785s-31.998785-14.326287-31.998784-31.998785v-127.994116c0-17.671475 14.326287-31.997762 31.998784-31.997761z"  horiz-adv-x="1024" />

    
    <glyph glyph-name="icon_compile" unicode="&#60307;" d="M256.011768 224.008122h159.991878c17.672498 0 31.998785-14.326287 31.998784-31.998784s-14.326287-31.998785-31.998784-31.998785H256.011768c-17.672498 0-31.998785 14.326287-31.998785 31.998785 0.001023 17.672498 14.32731 31.998785 31.998785 31.998784zM950.545034 777.379369L679.029154 505.863489c-12.496615-12.496615-32.756031-12.496615-45.252646 0-12.495592 12.495592-12.495592 32.756031 0 45.252646L905.292388 822.632015c12.496615 12.496615 32.756031 12.496615 45.252646 0 12.496615-12.496615 12.496615-32.757055 0-45.252646zM256.011768 416.024367h415.98011c17.672498 0 31.998785-14.326287 31.998784-31.998784s-14.326287-31.998785-31.998784-31.998785H256.011768c-17.672498 0-31.998785 14.326287-31.998785 31.998785 0.001023 17.671475 14.32731 31.998785 31.998785 31.998784z m0 191.990663h223.989447c17.672498 0 31.998785-14.326287 31.998785-31.998785s-14.326287-31.998785-31.998785-31.998785H256.011768c-17.672498 0-31.998785 14.326287-31.998785 31.998785 0.001023 17.672498 14.32731 31.998785 31.998785 31.998785z m639.969557-160.01746c0 17.672498 14.326287 31.998785 31.998784 31.998784s31.998785-14.326287 31.998785-31.998784v-415.98011c0-53.016471-42.97886-95.995331-95.995331-95.995331H160.016437c-53.016471 0-95.995331 42.97886-95.995331 95.995331V735.983563c0 53.016471 42.97886 95.995331 95.995331 95.995331h415.980109c17.672498 0 31.998785-14.326287 31.998785-31.998785s-14.326287-31.998785-31.998785-31.998784H160.016437c-17.672498 0-31.998785-14.326287-31.998785-31.998785v-703.966103c0-17.672498 14.326287-31.998785 31.998785-31.998785h703.966103c17.672498 0 31.998785 14.326287 31.998785 31.998785V447.99757z"  horiz-adv-x="1024" />

    
    <glyph glyph-name="icon_workset" unicode="&#60321;" d="M739.452315 80.014614c-35.344996 0-63.996546 28.652574-63.996546 63.996546 0 35.344996 28.652574 63.996546 63.996546 63.996547s63.996546-28.652574 63.996547-63.996547-28.652574-63.996546-63.996547-63.996546z m-79.54773 207.990055a31.998785 31.998785 0 0 1-29.05371-18.589381l-45.50131-98.585319a63.995523 63.995523 0 0 1 0-53.636594l45.50131-98.585319a31.998785 31.998785 0 0 1 29.05371-18.589381h165.144224a31.998785 31.998785 0 0 1 29.053709 18.589381l45.501311 98.585319a63.995523 63.995523 0 0 1 0 53.636594l-45.501311 98.585319a31.998785 31.998785 0 0 1-29.053709 18.589381H659.904585z m0 63.996546h165.144224c37.443797 0 71.468728-21.770839 87.160105-55.768141l45.50131-98.585319a127.991046 127.991046 0 0 0 0-107.273189l-45.50131-98.585319c-15.690354-33.997302-49.716308-55.768141-87.160105-55.768141H659.904585c-37.443797 0-71.468728 21.770839-87.160106 55.768141l-45.50131 98.585319a127.991046 127.991046 0 0 0 0 107.273189l45.50131 98.585319c15.690354 33.998325 49.716308 55.768141 87.160106 55.768141zM166.504198 767.981325c-26.508747 0-47.998177-21.48943-47.998177-47.998178v-191.990662c0-26.508747 21.48943-47.998177 47.998177-47.998177h191.990662c26.508747 0 47.998177 21.48943 47.998178 47.998177V719.984171c0 26.508747-21.48943 47.998177-47.998178 47.998177H166.504198z m-15.999392 63.997569h223.989447c53.016471 0 95.995331-42.97886 95.995331-95.995331v-223.989447c0-53.016471-42.97886-95.995331-95.995331-95.995331H150.504806c-53.016471 0-95.995331 42.97886-95.995331 95.995331V735.983563c0 53.016471 42.97886 95.995331 95.995331 95.995331z m0-543.974225c-17.672498 0-31.998785-14.326287-31.998785-31.998785v-223.989447c0-17.672498 14.326287-31.998785 31.998785-31.998785h223.989447c17.672498 0 31.998785 14.326287 31.998785 31.998785V256.005884c0 17.672498-14.326287 31.998785-31.998785 31.998785H150.504806z m0 63.996546h223.989447c53.016471 0 95.995331-42.97886 95.995331-95.995331v-223.989447c0-53.016471-42.97886-95.995331-95.995331-95.995331H150.504806c-53.016471 0-95.995331 42.97886-95.995331 95.995331V256.005884c0 53.017494 42.97886 95.995331 95.995331 95.995331zM630.481462 767.981325c-17.672498 0-31.998785-14.326287-31.998785-31.998785v-223.989447c0-17.672498 14.326287-31.998785 31.998785-31.998785h223.989447c17.672498 0 31.998785 14.326287 31.998785 31.998785V735.983563c0 17.672498-14.326287 31.998785-31.998785 31.998785H630.481462z m0 63.997569h223.989447c53.016471 0 95.995331-42.97886 95.995331-95.995331v-223.989447c0-53.016471-42.97886-95.995331-95.995331-95.995331H630.481462c-53.016471 0-95.995331 42.97886-95.995332 95.995331V735.983563c0 53.016471 42.97886 95.995331 95.995332 95.995331z"  horiz-adv-x="1024" />

    
    <glyph glyph-name="icon_calendar_fill" unicode="&#60325;" d="M703.990662 831.978894c17.672498 0 31.998785-14.326287 31.998785-31.998785v-127.994116c0-17.672498-14.326287-31.998785-31.998785-31.998784s-31.998785 14.326287-31.998784 31.998784V799.980109c0 17.672498 14.326287 31.998785 31.998784 31.998785z m-383.981324 0c17.672498 0 31.998785-14.326287 31.998784-31.998785v-127.994116c0-17.672498-14.326287-31.998785-31.998784-31.998784s-31.998785 14.326287-31.998785 31.998784V799.980109c0 17.672498 14.326287 31.998785 31.998785 31.998785z m479.976655-543.974225c0 17.672498-14.326287 31.998785-31.998784 31.998785h-63.996547c-17.672498 0-31.998785-14.326287-31.998784-31.998785s14.326287-31.998785 31.998784-31.998785h63.996547c17.672498 0 31.998785 14.326287 31.998784 31.998785z m-223.989447 0c0 17.672498-14.326287 31.998785-31.998784 31.998785H256.011768c-17.672498 0-31.998785-14.326287-31.998785-31.998785s14.326287-31.998785 31.998785-31.998785h287.985994c17.672498 0 31.998785 14.326287 31.998784 31.998785z m223.989447 159.992901c0 17.672498-14.326287 31.998785-31.998784 31.998784H256.011768c-17.672498 0-31.998785-14.326287-31.998785-31.998784s14.326287-31.998785 31.998785-31.998785h511.975441c17.672498 0 31.998785 14.326287 31.998784 31.998785z m-15.999392 287.985993c0 17.672498 14.326287 31.998785 31.998785 31.998785h47.998177c53.016471 0 95.995331-42.97886 95.995331-95.995331v-639.969557c0-53.016471-42.97886-95.995331-95.995331-95.995331H160.016437c-53.016471 0-95.995331 42.97886-95.995331 95.995331V671.985993c0 53.016471 42.97886 95.995331 95.995331 95.995332h47.998177c17.672498 0 31.998785-14.326287 31.998785-31.998785v-63.996547c0-44.180222 35.815717-79.995939 79.995939-79.995938 44.180222 0 79.995939 35.815717 79.995938 79.995938V735.98254c0 17.672498 14.326287 31.998785 31.998785 31.998785h159.991878c17.672498 0 31.998785-14.326287 31.998785-31.998785v-63.996547c0-44.180222 35.815717-79.995939 79.995938-79.995938s79.995939 35.815717 79.995939 79.995938v63.99757z"  horiz-adv-x="1024" />

    
    <glyph glyph-name="icon_delete_fill" unicode="&#60326;" d="M606.614891 479.995331c-17.124006 0-31.212886-13.481036-31.967062-30.588669l-12.763698-289.426808c-0.019443-0.449231-0.029676-0.899486-0.029676-1.348718 0-16.910135 13.70821-30.618345 30.618344-30.618345h1.380441c17.124006 0 31.212886 13.481036 31.967062 30.588669l12.763698 289.426809c0.019443 0.449231 0.029676 0.899486 0.029676 1.348717 0 16.910135-13.70821 30.618345-30.618345 30.618345h-1.38044z m-190.610222 0c-0.449231 0-0.89744-0.010233-1.346671-0.029676-16.894785-0.743944-29.989011-15.042601-29.246091-31.938409l12.735045-289.436019c0.753153-17.108656 14.842033-30.591739 31.968086-30.591739h1.37737c0.449231 0 0.89744 0.010233 1.345648 0.029676 16.895809 0.74292 29.989011 15.042601 29.246091 31.93841l-12.735046 289.436018c-0.753153 17.108656-14.842033 30.591739-31.968085 30.591739h-1.376347z m-8.93551 383.981325h209.861682a31.998785 31.998785 0 0 0 30.356378-21.87931l17.685801-53.057403c2.793626-8.382924-1.736551-17.443277-10.118451-20.237927a15.981996 15.981996 0 0 0-5.059226-0.820691H374.204657c-8.836249 0-15.999392 7.163143-15.999392 15.999392 0 1.719154 0.277316 3.428076 0.820691 5.059226l17.685801 53.057403a31.999808 31.999808 0 0 0 30.357402 21.87931z m424.915619-255.987209l-56.059783-616.661711c-4.495384-49.445132-45.951565-87.304392-95.601358-87.304392h-336.647274c-49.64877 0-91.105974 37.859259-95.601358 87.304392l-56.059783 616.661711H86.288249c-8.836249 0-15.999392 7.163143-15.999393 15.999393 0 1.843998 0.319272 3.674693 0.942465 5.410219l19.193131 53.408398a31.998785 31.998785 0 0 0 30.112832 21.177321h782.924409a31.998785 31.998785 0 0 0 30.112831-21.177321l19.193132-53.408398c2.988054-8.315386-1.330298-17.479093-9.645685-20.467147a16.010649 16.010649 0 0 0-5.41022-0.942465H831.984778z"  horiz-adv-x="1024" />

    
    <glyph glyph-name="icon_gather_fill" unicode="&#60328;" d="M583.76037 575.990662l41.370223 41.370223c12.496615 12.496615 12.496615 32.756031 0 45.252647-12.495592 12.495592-32.756031 12.495592-45.252646 0l-67.87897-67.87897-67.87897 67.87897c-12.495592 12.495592-32.756031 12.495592-45.252647 0-12.496615-12.496615-12.496615-32.756031 0-45.252647l41.370223-41.370223h-88.231507c-17.672498 0-31.998785-14.326287-31.998785-31.998784s14.326287-31.998785 31.998785-31.998785h127.994116v-47.998178h-63.996546c-17.672498 0-31.998785-14.326287-31.998785-31.998784s14.326287-31.998785 31.998785-31.998785h63.996546v-79.995939c0-17.672498 14.326287-31.998785 31.998785-31.998785s31.998785 14.326287 31.998785 31.998785v79.995939h63.996546c17.672498 0 31.998785 14.326287 31.998785 31.998785s-14.326287 31.998785-31.998785 31.998784h-63.996546v47.998178h127.994116c17.672498 0 31.998785 14.326287 31.998784 31.998785s-14.326287 31.998785-31.998784 31.998784h-88.231508z m280.22217-364.607068l38.426171 22.185278c22.956851 13.253862 52.311413 5.38873 65.566298-17.568121 13.253862-22.956851 5.38873-52.311413-17.568121-65.566298L542.479175-85.083561c-8.7902-7.220449-19.86442-11.04352-31.110555-10.906398-11.246135-0.138146-22.320355 3.685949-31.110555 10.906398L72.329329 150.434453C49.372477 163.688315 41.507346 193.042877 54.761208 215.999728c13.253862 22.956851 42.609447 30.823006 65.566298 17.568121l39.689954-22.914896V767.981325c0 53.016471 42.97886 95.995331 95.995331 95.995331h511.975441c53.016471 0 95.995331-42.97886 95.995331-95.995331v-556.597731z"  horiz-adv-x="1024" />

    
    <glyph glyph-name="icon_study_fill" unicode="&#60335;" d="M631.993908 831.978894v-511.97544c0-17.672498 14.326287-31.998785 31.998785-31.998785s31.998785 14.326287 31.998785 31.998785V831.978894h127.994116c53.016471 0 95.995331-42.97886 95.995331-95.995331v-543.974225c0-53.016471-42.97886-95.995331-95.995331-95.995331h-623.971188c-26.508747 0-47.998177-21.48943-47.998177-47.998178s21.48943-47.998177 47.998177-47.998177h703.966103c17.672498 0 31.998785-14.326287 31.998785-31.998785s-14.326287-31.998785-31.998785-31.998785H200.014406c-56.421011 0-111.994724 39.997969-111.994723 95.995332V735.983563c0 53.016471 42.97886 95.995331 95.995331 95.995331h447.978894z"  horiz-adv-x="1024" />

    
    <glyph glyph-name="icon_work_fill" unicode="&#60337;" d="M160.016437 831.978894h223.989447c53.016471 0 95.995331-42.97886 95.995331-95.995331v-223.989447c0-53.016471-42.97886-95.995331-95.995331-95.995331H160.016437c-53.016471 0-95.995331 42.97886-95.995331 95.995331V735.983563c0 53.016471 42.97886 95.995331 95.995331 95.995331z m0-479.977679h223.989447c53.016471 0 95.995331-42.97886 95.995331-95.995331v-223.989447c0-53.016471-42.97886-95.995331-95.995331-95.995331H160.016437c-53.016471 0-95.995331 42.97886-95.995331 95.995331V256.005884c0 53.017494 42.97886 95.995331 95.995331 95.995331zM639.994116 831.978894h223.989447c53.016471 0 95.995331-42.97886 95.995331-95.995331v-223.989447c0-53.016471-42.97886-95.995331-95.995331-95.995331H639.994116c-53.016471 0-95.995331 42.97886-95.995331 95.995331V735.983563c0 53.016471 42.977837 95.995331 95.995331 95.995331z m0-479.977679h223.989447c53.016471 0 95.995331-42.97886 95.995331-95.995331v-223.989447c0-53.016471-42.97886-95.995331-95.995331-95.995331H639.994116c-53.016471 0-95.995331 42.97886-95.995331 95.995331V256.005884c0 53.017494 42.977837 95.995331 95.995331 95.995331z"  horiz-adv-x="1024" />

    
    <glyph glyph-name="icon_trashcan" unicode="&#60338;" d="M607.312786 480.342232c-17.124006 0-31.212886-13.481036-31.967062-30.588669l-12.763699-289.426809c-0.019443-0.449231-0.029676-0.899486-0.029675-1.348717 0-16.910135 13.70821-30.618345 30.618344-30.618345h1.38044c17.124006 0 31.212886 13.481036 31.967063 30.588669l12.763698 289.426809c0.019443 0.449231 0.029676 0.899486 0.029676 1.348717 0 16.910135-13.70821 30.618345-30.618345 30.618345h-1.38044z m-190.610222 0c-0.449231 0-0.89744-0.010233-1.346671-0.029676-16.894785-0.743944-29.989011-15.042601-29.246091-31.93841l12.735045-289.436018c0.753153-17.108656 14.842033-30.591739 31.968086-30.591739h1.37737c0.449231 0 0.89744 0.010233 1.345648 0.029676 16.895809 0.74292 29.989011 15.042601 29.246091 31.93841l-12.735046 289.436018c-0.753153 17.108656-14.842033 30.591739-31.968086 30.591739h-1.376346z m-8.93551 351.983563h209.861682a31.998785 31.998785 0 0 0 30.356378-21.87931l17.685801-53.057403c2.793626-8.382924-1.736551-17.443277-10.118452-20.237926a15.981996 15.981996 0 0 0-5.059225-0.820692H374.902552c-8.836249 0-15.999392 7.163143-15.999392 15.999392 0 1.719154 0.277316 3.428076 0.820691 5.059226l17.685801 53.057403a32.001855 32.001855 0 0 0 30.357402 21.87931z m391.462716-223.989447l-26.378787-580.331271c-2.330068-51.268664-44.574195-91.636047-95.89607-91.636047H348.440877c-51.321876 0-93.566002 40.367383-95.89607 91.636047l-26.378788 580.331271H118.915343c-8.836249 0-15.999392 7.163143-15.999392 15.999392 0 1.719154 0.277316 3.428076 0.820692 5.059226l17.685801 53.057403a31.998785 31.998785 0 0 0 30.356378 21.87931h721.837122a31.998785 31.998785 0 0 0 30.356379-21.87931l17.685801-53.057403c2.793626-8.382924-1.736551-17.443277-10.118452-20.237926a15.981996 15.981996 0 0 0-5.059226-0.820692H799.22977z"  horiz-adv-x="1024" />

    
    <glyph glyph-name="fangwu" unicode="&#58880;" d="M735.5-63h-447C165.3-63 65 37.3 65 160.5v447C65 730.7 165.3 831 288.5 831h447C858.7 831 959 730.7 959 607.5v-447C959 37.3 858.7-63 735.5-63z m-447 812.7c-78.5 0-142.3-63.8-142.3-142.2v-447c0-78.4 63.8-142.2 142.3-142.2h447c78.4 0 142.2 63.8 142.2 142.2v447c0 78.4-63.8 142.2-142.2 142.2h-447zM711.8 459.2l27.8-28.7c21.7-22.4 21.7-58.7 0-81.1h-27.8v-137.3c0-47.5-38.5-85.9-85.9-85.9h-58.3V240.8c0 19-15.4 34.4-34.4 34.4H491c-19 0-34.4-15.4-34.4-34.4v-114.7h-58.3c-47.5 0-85.9 38.5-85.9 85.9V349.3h-27.8c-21.7 22.7-21.7 58.4 0 81.1l27.8 28.7 10.6 11L472.9 625c10.2 10.7 24.4 16.8 39.2 16.8 14.8 0 29-6.1 39.2-16.8l149.9-154.9 10.6-10.9z"  horiz-adv-x="1024" />

    
    <glyph glyph-name="paomeiyanbiaoqing" unicode="&#59037;" d="M512-64c-60.473 0-119.145 11.847-174.387 35.213-53.35 22.564-101.259 54.865-142.397 96.003-41.139 41.138-73.439 89.047-96.003 142.397C75.847 264.855 64 323.527 64 384s11.847 119.145 35.213 174.387c22.564 53.35 54.865 101.259 96.003 142.397 41.138 41.139 89.047 73.439 142.397 96.003C392.855 820.153 451.527 832 512 832s119.145-11.847 174.387-35.213c53.35-22.564 101.259-54.865 142.397-96.003 41.139-41.138 73.439-89.047 96.003-142.397C948.153 503.145 960 444.473 960 384s-11.847-119.145-35.213-174.387c-22.564-53.35-54.865-101.259-96.003-142.397-41.138-41.139-89.047-73.439-142.397-96.003C631.145-52.153 572.473-64 512-64z m0 864C282.617 800 96 613.383 96 384s186.617-416 416-416 416 186.617 416 416S741.383 800 512 800zM512 80c-97.047 0-176 78.953-176 176 0 8.836 7.164 16 16 16s16-7.164 16-16c0-79.402 64.598-144 144-144s144 64.598 144 144c0 8.836 7.164 16 16 16s16-7.164 16-16c0-97.047-78.953-176-176-176zM280 504m-56 0a56 56 0 1 1 112 0 56 56 0 1 1-112 0ZM839.536 488.21a220.804 220.804 0 0 1-5.86 7.737c-2.04 2.527-4.269 4.87-6.446 7.32-1.071 1.25-2.295 2.304-3.45 3.462l-3.533 3.415c-9.649 8.865-20.588 16.509-32.387 22.68-23.592 12.402-50.569 18.852-77.521 18.865-26.953 0.025-53.938-6.428-77.538-18.823a152.774 152.774 0 0 1-27.025-18.018c-6.481-4.035-12.367-8.932-17.369-14.524-1.304-1.541-2.616-3.032-3.803-4.645-1.154-1.655-2.344-3.223-3.379-4.933a89.266 89.266 0 0 1-2.911-5.204c-0.834-1.834-1.65-3.64-2.313-5.541 1.965 0.598 3.777 1.29 5.57 1.954 1.808 0.647 3.613 1.243 5.323 1.904l5.19 1.767 5.083 1.628a219.56 219.56 0 0 0 19.589 5.15c12.772 2.702 25.155 4.047 37.583 4.074 12.43 0.01 24.82-1.338 37.601-4.032a217.08 217.08 0 0 0 19.594-5.16l5.081-1.634 5.186-1.775c1.708-0.663 3.511-1.262 5.317-1.912 1.79-0.668 3.601-1.363 5.561-1.965-0.668 1.896-1.486 3.7-2.323 5.53a89.757 89.757 0 0 1-2.917 5.196c-1.037 1.706-2.226 3.275-3.383 4.925-1.187 1.613-2.5 3.101-3.805 4.639-5.347 5.971-11.691 11.162-18.702 15.346a85.253 85.253 0 0 1-6.508 3.521 231.807 231.807 0 0 0 15.299 0.534c22.8 0.009 45.556-3.392 67.913-10.061 11.179-3.35 22.27-7.506 33.284-12.485 2.727-1.284 5.506-2.538 8.254-3.88l8.248-4.17c2.688-1.511 5.484-2.944 8.26-4.452 2.729-1.561 5.479-3.149 8.378-4.644-1.607 2.79-3.364 5.487-5.141 8.211zM368.823 641.372c7.952-1.858 15.653-4.134 23.293-6.512l5.703-1.827 5.655-1.909 5.58-2.033 5.531-2.115c1.841-0.71 3.75-1.305 5.703-1.828 1.952-0.525 3.94-0.989 5.861-1.565 1.917-0.582 3.752-1.302 5.432-2.281 1.684-0.971 3.222-2.186 4.651-3.582a43.329 43.329 0 0 0 7.586-10.024c2.155-3.965 4.034-8.388 5.006-14.324l-1.646-2.744c-5.695-1.936-10.482-2.359-14.994-2.324a43.345 43.345 0 0 0-12.414 1.976c-1.904 0.604-3.7 1.389-5.349 2.418-1.654 1.021-3.152 2.302-4.568 3.719-1.412 1.424-2.757 2.96-4.139 4.435-1.381 1.477-2.804 2.882-4.297 4.172l-4.469 3.885-4.42 3.967-4.345 4.091-4.297 4.173c-5.693 5.622-11.326 11.346-16.707 17.488l1.644 2.744zM656.823 638.628c-5.381-6.142-11.014-11.866-16.707-17.488l-4.296-4.173-4.345-4.091-4.42-3.967-4.469-3.885c-1.492-1.29-2.916-2.695-4.297-4.172-1.382-1.475-2.727-3.011-4.139-4.435-1.416-1.418-2.914-2.698-4.568-3.719-1.649-1.029-3.445-1.814-5.349-2.418a43.316 43.316 0 0 0-12.414-1.976c-4.512-0.035-9.3 0.388-14.995 2.324l-1.646 2.744c0.972 5.936 2.851 10.359 5.005 14.324a43.35 43.35 0 0 0 7.586 10.024c1.429 1.396 2.967 2.611 4.651 3.582 1.679 0.979 3.514 1.698 5.432 2.281 1.921 0.576 3.909 1.04 5.861 1.565 1.953 0.523 3.862 1.118 5.703 1.828l5.531 2.115 5.58 2.033 5.655 1.909 5.704 1.827c7.64 2.378 15.341 4.654 23.293 6.512l1.644-2.744zM939.696 747.697c-25.936 25.936-67.308 27.022-94.542 3.265-27.234 23.757-68.605 22.672-94.542-3.265-25.896-25.896-27.019-67.181-3.376-94.416l-0.126-0.126 3.502-3.502 94.542-94.542 94.542 94.542 3.502 3.502-0.126 0.126c23.644 27.235 22.521 68.519-3.376 94.416z"  horiz-adv-x="1024" />

    
    <glyph glyph-name="huachibiaoqing" unicode="&#59036;" d="M512-64c-60.473 0-119.145 11.847-174.387 35.213-53.35 22.564-101.259 54.865-142.397 96.003-41.138 41.138-73.438 89.047-96.003 142.397C75.848 264.855 64 323.527 64 384s11.848 119.145 35.213 174.387c22.564 53.35 54.865 101.259 96.003 142.397 41.139 41.139 89.048 73.439 142.397 96.003C392.855 820.153 451.527 832 512 832s119.145-11.847 174.387-35.213c53.35-22.564 101.259-54.865 142.397-96.003 41.138-41.138 73.438-89.047 96.003-142.397C948.152 503.145 960 444.473 960 384s-11.848-119.145-35.213-174.387c-22.564-53.35-54.865-101.259-96.003-142.397-41.139-41.139-89.048-73.439-142.397-96.003C631.145-52.153 572.473-64 512-64z m0 864C282.617 800 96 613.383 96 384s186.617-416 416-416 416 186.617 416 416S741.383 800 512 800zM515.073 126.201c51.429 44.863 128.273 45.064 179.923 0.594C720.821 163.304 736 207.878 736 256H288c0-49.601 16.133-95.427 43.422-132.543 51.62 47.785 130.968 48.701 183.651 2.744zM515.073 126.201c-52.682 45.957-132.03 45.042-183.651-2.744C372.195 68 437.889 32 512 32c75.59 0 142.43 37.445 182.996 94.795-51.651 44.47-128.495 44.269-179.923-0.594zM420.38 580.381c-35.283 35.283-91.563 36.759-128.61 4.441-37.047 32.318-93.327 30.841-128.61-4.441-35.228-35.228-36.756-91.389-4.592-128.439l-0.171-0.171 4.763-4.763 128.61-128.61 128.61 128.61 4.763 4.763-0.171 0.171c32.164 37.049 30.636 93.211-4.592 128.439zM860.84 580.381c-35.283 35.283-91.563 36.759-128.61 4.441-37.047 32.318-93.327 30.841-128.61-4.441-35.228-35.228-36.756-91.389-4.592-128.439l-0.171-0.171 4.763-4.763 128.61-128.61 128.61 128.61 4.763 4.763-0.171 0.171c32.163 37.049 30.636 93.211-4.592 128.439zM352.823 673.372c7.952-1.858 15.653-4.134 23.293-6.512l5.704-1.828 5.655-1.909 5.58-2.033 5.531-2.115c1.841-0.71 3.75-1.305 5.703-1.828 1.952-0.525 3.94-0.989 5.861-1.565 1.917-0.582 3.752-1.302 5.432-2.281 1.684-0.971 3.222-2.186 4.651-3.582a43.329 43.329 0 0 0 7.586-10.024c2.155-3.965 4.034-8.389 5.005-14.324l-1.646-2.744c-5.695-1.936-10.482-2.36-14.995-2.324a43.345 43.345 0 0 0-12.414 1.976c-1.904 0.604-3.7 1.389-5.349 2.418-1.654 1.021-3.152 2.302-4.568 3.719-1.412 1.424-2.757 2.96-4.139 4.435-1.381 1.477-2.804 2.882-4.297 4.172l-4.469 3.885-4.42 3.967-4.345 4.091-4.296 4.172c-5.693 5.622-11.326 11.346-16.707 17.488l1.644 2.746zM672.823 670.628c-5.382-6.142-11.014-11.866-16.707-17.488l-4.297-4.172-4.345-4.091-4.42-3.967-4.469-3.885c-1.492-1.29-2.916-2.695-4.297-4.172-1.382-1.475-2.727-3.011-4.139-4.435-1.416-1.418-2.914-2.698-4.568-3.719-1.649-1.029-3.445-1.814-5.349-2.418a43.322 43.322 0 0 0-12.414-1.976c-4.512-0.035-9.3 0.389-14.994 2.324l-1.646 2.744c0.972 5.936 2.851 10.36 5.006 14.324a43.35 43.35 0 0 0 7.586 10.024c1.429 1.396 2.967 2.611 4.651 3.582 1.679 0.979 3.514 1.698 5.432 2.281 1.921 0.576 3.909 1.04 5.861 1.565 1.953 0.523 3.862 1.118 5.703 1.828l5.531 2.115 5.58 2.033 5.655 1.909 5.703 1.828c7.64 2.378 15.341 4.654 23.293 6.512l1.644-2.746z"  horiz-adv-x="1024" />

    
    <glyph glyph-name="kaihuaidaxiaobiaoqing" unicode="&#59038;" d="M512-64c-60.473 0-119.145 11.847-174.387 35.213-53.35 22.564-101.259 54.865-142.397 96.003-41.138 41.138-73.438 89.047-96.003 142.397C75.848 264.855 64 323.527 64 384s11.848 119.145 35.213 174.387c22.564 53.35 54.865 101.259 96.003 142.397 41.139 41.139 89.048 73.439 142.397 96.003C392.855 820.153 451.527 832 512 832s119.145-11.847 174.387-35.213c53.35-22.564 101.259-54.865 142.397-96.003 41.138-41.138 73.438-89.047 96.003-142.397C948.152 503.145 960 444.473 960 384s-11.848-119.145-35.213-174.387c-22.564-53.35-54.865-101.259-96.003-142.397-41.139-41.139-89.048-73.439-142.397-96.003C631.145-52.153 572.473-64 512-64z m0 864C282.617 800 96 613.383 96 384s186.617-416 416-416 416 186.617 416 416S741.383 800 512 800zM515.073 126.201c51.429 44.863 128.273 45.064 179.923 0.594C720.821 163.304 736 207.878 736 256H288c0-49.601 16.133-95.427 43.422-132.543 51.62 47.785 130.968 48.701 183.651 2.744zM515.073 126.201c-52.682 45.957-132.03 45.042-183.651-2.744C372.195 68 437.889 32 512 32c75.59 0 142.43 37.445 182.996 94.795-51.651 44.47-128.495 44.269-179.923-0.594zM411.794 504.452c-1.643 1.69-3.331 3.272-5.03 4.827-3.407 3.086-6.923 5.903-10.487 8.605-7.151 5.346-14.586 9.996-22.229 14.136-3.825 2.061-7.731 3.926-11.743 5.528-4.016 1.595-8.131 2.946-12.317 4.123-8.387 2.319-16.909 4.307-25.149 6.985l-12.39 3.943-12.426 3.856-12.481 3.721-12.517 3.634c-16.742 4.716-33.463 9.483-50.419 13.673l-1.21-2.963c15.043-8.875 30.323-17.174 45.581-25.523l11.483-6.166 11.519-6.078 11.574-5.943 11.61-5.855c7.564-3.758 14.862-8.17 22.277-12.292-0.479 0.001-0.959 0.013-1.438 0.01-5.333-0.026-10.667-0.342-16-0.831-10.667-1.023-21.333-2.404-32-3.04l-16-1.033-16-1.127-16-1.273L224 504c-21.333-1.962-42.667-3.869-64-6.4v-3.2c21.333-2.531 42.667-4.438 64-6.4l16-1.367 16-1.273 16-1.127 16-1.033c10.667-0.636 21.333-2.017 32-3.04 5.333-0.489 10.667-0.805 16-0.831 0.479-0.003 0.959 0.008 1.438 0.01-7.415-4.123-14.713-8.534-22.277-12.292l-11.61-5.855-11.574-5.943-11.519-6.078-11.483-6.166c-15.258-8.349-30.537-16.648-45.581-25.523l1.21-2.963c16.957 4.19 33.677 8.957 50.419 13.673l12.517 3.634 12.481 3.721 12.426 3.856 12.39 3.943c8.24 2.678 16.763 4.665 25.149 6.985 4.186 1.177 8.302 2.528 12.317 4.123 4.013 1.602 7.918 3.467 11.743 5.528 7.643 4.14 15.079 8.789 22.229 14.136 3.564 2.702 7.08 5.519 10.487 8.605 1.699 1.555 3.386 3.137 5.03 4.827a71.694 71.694 0 0 1 4.811 5.363l-0.608 1.488 0.003 0.001v3.2l-0.003 0.001 0.608 1.488a71.792 71.792 0 0 1-4.809 5.361zM704 480.16c10.667 1.023 21.333 2.404 32 3.04l16 1.033 16 1.127 16 1.273L800 488c21.333 1.962 42.667 3.869 64 6.4v3.2c-21.333 2.531-42.667 4.438-64 6.4l-16 1.367-16 1.273-16 1.127-16 1.033c-10.667 0.636-21.333 2.017-32 3.04-5.333 0.489-10.667 0.805-16 0.831-0.479 0.003-0.959-0.008-1.438-0.01 7.415 4.123 14.712 8.534 22.277 12.292l11.61 5.855 11.574 5.943 11.519 6.078 11.483 6.166c15.258 8.349 30.537 16.648 45.581 25.523l-1.209 2.963c-16.957-4.19-33.677-8.957-50.419-13.673l-12.517-3.634-12.481-3.721-12.426-3.856-12.39-3.943c-8.24-2.678-16.762-4.665-25.149-6.985-4.186-1.177-8.302-2.528-12.317-4.123-4.013-1.602-7.918-3.467-11.744-5.528-7.643-4.14-15.079-8.789-22.229-14.136-3.564-2.702-7.08-5.519-10.487-8.605-1.698-1.555-3.386-3.137-5.029-4.827a71.474 71.474 0 0 1-4.811-5.363l0.608-1.488-0.003-0.001v-3.2l0.003-0.001-0.608-1.488a71.672 71.672 0 0 1 4.811-5.363c1.643-1.69 3.331-3.272 5.029-4.827 3.407-3.086 6.924-5.903 10.487-8.605 7.151-5.346 14.586-9.996 22.229-14.136 3.825-2.061 7.731-3.926 11.744-5.528 4.015-1.595 8.131-2.946 12.317-4.123 8.387-2.319 16.909-4.307 25.149-6.985l12.39-3.943 12.426-3.856 12.481-3.721 12.517-3.634c16.742-4.716 33.463-9.483 50.419-13.673l1.209 2.963c-15.043 8.875-30.323 17.174-45.581 25.523l-11.483 6.166-11.519 6.078-11.574 5.943-11.61 5.855c-7.564 3.758-14.862 8.17-22.277 12.292 0.479-0.001 0.959-0.013 1.438-0.01 5.333 0.03 10.667 0.346 16 0.835zM369 641.249c8.227-3.383 16.15-7.146 23.998-11.002l5.854-2.932 5.795-3.006 5.704-3.12 5.645-3.194c1.878-1.069 3.84-2.033 5.854-2.933 2.013-0.901 4.069-1.746 6.045-2.693 1.971-0.953 3.842-2.031 5.524-3.345 1.688-1.307 3.198-2.836 4.576-4.53a50.839 50.839 0 0 0 7.074-11.658c0.946-2.234 1.813-4.567 2.5-7.125 0.335-1.289 0.652-2.602 0.896-4.005 0.261-1.382 0.441-2.865 0.535-4.457l-2-2.498c-1.573-0.258-3.06-0.408-4.465-0.457-1.423-0.07-2.772-0.049-4.104-0.005-2.647 0.108-5.113 0.443-7.5 0.875a50.826 50.826 0 0 0-12.926 4.342c-1.955 0.973-3.778 2.11-5.424 3.47-1.651 1.352-3.114 2.941-4.476 4.655-1.358 1.72-2.634 3.541-3.955 5.307-1.319 1.767-2.691 3.47-4.146 5.067l-4.355 4.806-4.296 4.88-4.205 4.994-4.146 5.068c-5.485 6.811-10.896 13.714-16.002 20.998l2 2.498zM657 638.751c-5.106-7.284-10.517-14.187-16.002-20.998l-4.146-5.068-4.205-4.994-4.296-4.88-4.355-4.806c-1.455-1.598-2.827-3.3-4.146-5.067-1.321-1.766-2.597-3.587-3.955-5.307-1.363-1.714-2.825-3.302-4.476-4.655-1.646-1.359-3.469-2.497-5.424-3.47a50.826 50.826 0 0 0-12.926-4.342c-2.387-0.432-4.853-0.767-7.5-0.875-1.331-0.044-2.681-0.065-4.104 0.005a35.175 35.175 0 0 0-4.465 0.457l-2 2.498c0.094 1.592 0.273 3.075 0.535 4.457 0.244 1.403 0.561 2.716 0.896 4.005 0.687 2.559 1.554 4.891 2.5 7.125a50.86 50.86 0 0 0 7.074 11.658c1.378 1.694 2.888 3.223 4.576 4.53 1.682 1.314 3.553 2.392 5.524 3.345 1.976 0.947 4.033 1.793 6.045 2.693 2.014 0.899 3.976 1.864 5.854 2.933l5.645 3.194 5.704 3.12 5.795 3.006 5.854 2.932c7.848 3.856 15.771 7.62 23.998 11.002l2-2.498z"  horiz-adv-x="1024" />

    
    <glyph glyph-name="xinshangbiaoqing" unicode="&#59039;" d="M512-64c-60.473 0-119.145 11.847-174.387 35.213-53.35 22.564-101.259 54.865-142.397 96.003-41.138 41.138-73.438 89.047-96.003 142.397C75.848 264.855 64 323.527 64 384s11.848 119.145 35.213 174.387c22.564 53.35 54.865 101.259 96.003 142.397 41.139 41.139 89.048 73.439 142.397 96.003C392.855 820.153 451.527 832 512 832s119.145-11.847 174.387-35.213c53.35-22.564 101.259-54.865 142.397-96.003 41.138-41.138 73.438-89.047 96.003-142.397C948.152 503.145 960 444.473 960 384s-11.848-119.145-35.213-174.387c-22.564-53.35-54.865-101.259-96.003-142.397-41.139-41.139-89.048-73.439-142.397-96.003C631.145-52.153 572.473-64 512-64z m0 864C282.617 800 96 613.383 96 384s186.617-416 416-416 416 186.617 416 416S741.383 800 512 800zM512 80c-97.047 0-176 78.953-176 176 0 8.836 7.163 16 16 16s16-7.164 16-16c0-79.402 64.599-144 144-144s144 64.598 144 144c0 8.836 7.163 16 16 16s16-7.164 16-16c0-97.047-78.953-176-176-176zM280 504m-56 0a56 56 0 1 1 112 0 56 56 0 1 1-112 0ZM744 504m-56 0a56 56 0 1 1 112 0 56 56 0 1 1-112 0ZM256.314 641.569c7.157 1.116 14.217 1.754 21.255 2.276l5.268 0.341 5.25 0.248 5.221 0.106 5.203 0.013c1.733-0.001 3.492 0.128 5.268 0.34 1.775 0.21 3.564 0.489 5.328 0.641 1.763 0.148 3.492 0.129 5.164-0.178 1.673-0.3 3.291-0.879 4.867-1.666 3.148-1.596 6.19-3.715 9.08-6.601 2.884-2.913 5.663-6.352 8.096-11.519l-0.628-3.138c-4.233-3.834-8.121-5.939-11.904-7.519-3.777-1.553-7.401-2.339-10.92-2.601-1.757-0.12-3.473-0.032-5.133 0.334-1.661 0.36-3.265 1.007-4.836 1.822-1.57 0.818-3.114 1.764-4.672 2.641-1.558 0.878-3.132 1.675-4.732 2.34l-4.797 2.013-4.779 2.106-4.75 2.248-4.732 2.341c-6.296 3.188-12.568 6.493-18.745 10.276l0.628 3.136zM768.314 638.431c-6.177-3.783-12.449-7.087-18.745-10.276l-4.732-2.341-4.75-2.248-4.779-2.106-4.797-2.013c-1.6-0.665-3.174-1.462-4.732-2.34-1.558-0.876-3.102-1.822-4.672-2.641-1.57-0.815-3.174-1.463-4.835-1.822-1.66-0.366-3.376-0.454-5.133-0.334-3.519 0.262-7.143 1.049-10.92 2.601-3.783 1.58-7.67 3.685-11.904 7.519l-0.628 3.138c2.433 5.167 5.212 8.606 8.096 11.519 2.889 2.886 5.932 5.006 9.08 6.601 1.576 0.786 3.194 1.365 4.867 1.666 1.672 0.307 3.401 0.326 5.165 0.178 1.764-0.152 3.553-0.431 5.328-0.641 1.776-0.212 3.535-0.341 5.268-0.34l5.203-0.013 5.221-0.106 5.25-0.248 5.268-0.341c7.038-0.522 14.099-1.16 21.255-2.276l0.626-3.136z"  horiz-adv-x="1024" />

    
    <glyph glyph-name="shangxinbiaoqing" unicode="&#59040;" d="M512-64c-60.473 0-119.145 11.848-174.387 35.213-53.35 22.564-101.259 54.865-142.397 96.003-41.139 41.139-73.439 89.048-96.003 142.397C75.847 264.855 64 323.527 64 384s11.847 119.145 35.213 174.387c22.564 53.35 54.865 101.259 96.003 142.397 41.138 41.138 89.047 73.438 142.397 96.003C392.855 820.152 451.527 832 512 832s119.145-11.848 174.387-35.213c53.35-22.564 101.259-54.865 142.397-96.003 41.139-41.139 73.439-89.048 96.003-142.397C948.153 503.145 960 444.473 960 384s-11.847-119.145-35.213-174.387c-22.564-53.35-54.865-101.259-96.003-142.397-41.138-41.138-89.047-73.438-142.397-96.003C631.145-52.152 572.473-64 512-64z m0 864C282.617 800 96 613.383 96 384s186.617-416 416-416 416 186.617 416 416S741.383 800 512 800zM672 80c-8.836 0-16 7.163-16 16 0 79.401-64.598 144-144 144s-144-64.599-144-144c0-8.837-7.164-16-16-16s-16 7.163-16 16c0 97.047 78.953 176 176 176s176-78.953 176-176c0-8.837-7.164-16-16-16zM328 504m-56 0a56 56 0 1 1 112 0 56 56 0 1 1-112 0ZM696 504m-56 0a56 56 0 1 1 112 0 56 56 0 1 1-112 0ZM232.822 648.822c15.805-12.21 33.246-21.486 51.541-26.932 2.267-0.722 4.592-1.273 6.867-1.917 2.292-0.6 4.628-1.039 6.921-1.566 2.309-0.477 4.644-0.833 6.948-1.257 2.319-0.366 4.659-0.604 6.97-0.916 2.322-0.26 4.655-0.415 6.967-0.632 2.325-0.136 4.653-0.178 6.963-0.295l6.94 0.004 6.907 0.343c9.196 0.641 18.176 2.928 26.765 5.68l3.215 1.047c1.071 0.337 2.151 0.63 3.21 0.999 2.115 0.746 4.263 1.342 6.385 2.024 2.108 0.726 4.268 1.291 6.401 1.952 2.115 0.706 4.298 1.254 6.445 1.924 8.638 2.561 17.309 5.485 26.259 8.774 2.21 0.863 4.501 1.66 6.78 2.529 1.134 0.443 2.255 0.915 3.42 1.346 1.158 0.439 2.35 0.85 3.501 1.328a225.28 225.28 0 0 0 7.141 2.773 102.28 102.28 0 0 0 7.501 2.792l2.263-2.263a79.07 79.07 0 0 0-3.383-7.557c-1.297-2.409-2.749-4.712-4.227-7.04-1.54-2.254-3.207-4.414-4.909-6.577-0.827-1.115-1.785-2.067-2.693-3.097-0.922-1.011-1.84-2.043-2.795-3.034-7.685-7.857-16.751-14.434-26.612-19.537-2.457-1.297-5.015-2.374-7.565-3.482-2.566-1.064-5.217-1.902-7.859-2.757-2.66-0.794-5.381-1.381-8.088-1.978-2.723-0.537-5.487-0.87-8.229-1.241-11.052-1.151-22.096-0.836-32.927-0.205l-8.107 0.719c-2.688 0.368-5.369 0.71-8.037 1.112-2.658 0.501-5.31 0.986-7.942 1.543-2.619 0.645-5.239 1.234-7.829 1.933-2.571 0.793-5.148 1.517-7.683 2.371-2.518 0.919-5.053 1.746-7.526 2.745-2.456 1.053-4.931 2.017-7.338 3.143-2.391 1.169-4.807 2.244-7.143 3.489-18.725 9.858-35.153 23.351-47.681 39.451l2.263 2.262zM793.441 646.559c-12.528-16.101-28.956-29.593-47.681-39.451-2.336-1.244-4.753-2.32-7.143-3.489-2.407-1.125-4.882-2.09-7.338-3.143-2.473-0.999-5.008-1.825-7.526-2.745-2.535-0.854-5.112-1.578-7.683-2.371-2.59-0.698-5.21-1.288-7.829-1.933-2.632-0.557-5.284-1.042-7.942-1.543-2.668-0.402-5.35-0.744-8.037-1.112l-8.107-0.719c-10.831-0.631-21.875-0.946-32.927 0.205-2.741 0.371-5.506 0.704-8.229 1.241-2.707 0.597-5.428 1.184-8.088 1.978-2.642 0.854-5.293 1.693-7.859 2.757-2.55 1.107-5.108 2.185-7.565 3.482-9.861 5.104-18.927 11.68-26.612 19.537-0.954 0.991-1.872 2.022-2.795 3.034-0.908 1.031-1.866 1.982-2.693 3.097-1.702 2.163-3.37 4.323-4.909 6.577-1.478 2.328-2.93 4.631-4.227 7.04a79.07 79.07 0 0 0-3.383 7.557l2.263 2.263a102.28 102.28 0 0 0 7.501-2.792 225.28 225.28 0 0 0 7.141-2.773c1.15-0.478 2.343-0.888 3.501-1.328 1.165-0.43 2.286-0.903 3.42-1.346 2.279-0.869 4.57-1.666 6.78-2.529 8.951-3.289 17.622-6.213 26.259-8.774 2.146-0.67 4.329-1.218 6.445-1.924 2.133-0.662 4.293-1.227 6.4-1.952 2.122-0.682 4.271-1.278 6.385-2.024 1.059-0.368 2.139-0.661 3.21-0.999l3.215-1.047c8.589-2.752 17.57-5.039 26.765-5.68l6.907-0.343 6.94-0.004c2.31 0.117 4.638 0.159 6.963 0.295 2.312 0.217 4.645 0.372 6.967 0.632 2.311 0.311 4.651 0.55 6.97 0.916 2.304 0.424 4.638 0.78 6.948 1.257 2.293 0.527 4.63 0.966 6.921 1.566 2.275 0.644 4.599 1.194 6.866 1.917 18.295 5.446 35.736 14.722 51.542 26.932l2.264-2.262zM672 301.913C672 350.609 752 448 752 448s80-97.391 80-146.087C832 253.217 796.183 224 752 224s-80 29.217-80 77.913z"  horiz-adv-x="1024" />

    
    <glyph glyph-name="xiangwenbiaoqing" unicode="&#59041;" d="M512-64c-60.473 0-119.145 11.848-174.387 35.213-53.35 22.564-101.259 54.865-142.397 96.003-41.138 41.139-73.438 89.048-96.003 142.397C75.848 264.855 64 323.527 64 384s11.848 119.145 35.213 174.387c22.564 53.35 54.865 101.259 96.003 142.397 41.139 41.138 89.048 73.438 142.397 96.003C392.855 820.152 451.527 832 512 832s119.145-11.848 174.387-35.213c53.35-22.564 101.259-54.865 142.397-96.003 41.138-41.139 73.438-89.048 96.003-142.397C948.152 503.145 960 444.473 960 384s-11.848-119.145-35.213-174.387c-22.564-53.35-54.865-101.259-96.003-142.397-41.139-41.138-89.048-73.438-142.397-96.003C631.145-52.152 572.473-64 512-64z m0 864C282.617 800 96 613.383 96 384s186.617-416 416-416 416 186.617 416 416S741.383 800 512 800zM512 88c-8.837 0-16 7.163-16 16s7.163 16 16 16c18.748 0 34 15.252 34 34s-15.252 34-34 34c-8.837 0-16 7.163-16 16s7.163 16 16 16c18.748 0 34 15.252 34 34s-15.252 34-34 34c-8.837 0-16 7.163-16 16s7.163 16 16 16c36.393 0 66-29.607 66-66 0-19.965-8.911-37.888-22.964-50C569.089 191.888 578 173.965 578 154c0-36.393-29.607-66-66-66zM876.677 432c-2.899 1.495-5.649 3.083-8.378 4.644-2.776 1.509-5.572 2.941-8.26 4.452l-8.249 4.169c-2.748 1.342-5.527 2.596-8.254 3.88-11.014 4.979-22.105 9.136-33.284 12.485-22.358 6.669-45.114 10.07-67.913 10.061-22.798-0.029-45.546-3.427-67.896-10.104-11.175-3.352-22.265-7.501-33.279-12.476-2.727-1.282-5.511-2.529-8.257-3.874l-8.253-4.162c-2.69-1.508-5.488-2.938-8.266-4.444-2.733-1.557-5.484-3.143-8.388-4.634 1.603 2.794 3.358 5.493 5.131 8.22 1.876 2.615 3.841 5.186 5.854 7.745 2.037 2.531 4.268 4.873 6.441 7.328a23.566 23.566 0 0 0 1.697 1.761l1.753 1.703 3.531 3.42c9.649 8.869 20.589 16.52 32.392 22.688 23.6 12.395 50.585 18.848 77.538 18.823 26.952-0.012 53.929-6.463 77.521-18.865 11.799-6.17 22.739-13.815 32.387-22.679l3.533-3.415c1.155-1.158 2.379-2.212 3.45-3.462 2.177-2.45 4.406-4.793 6.446-7.32a220.804 220.804 0 0 0 5.86-7.737c1.779-2.721 3.536-5.418 5.143-8.207zM147.323 432c1.607 2.789 3.364 5.486 5.141 8.209a220.804 220.804 0 0 0 5.86 7.737c2.04 2.527 4.269 4.87 6.446 7.32 1.071 1.25 2.295 2.304 3.45 3.462l3.533 3.415c9.649 8.865 20.588 16.509 32.387 22.679 23.592 12.402 50.569 18.853 77.521 18.865 26.953 0.025 53.938-6.428 77.538-18.823 11.803-6.169 22.743-13.82 32.392-22.688l3.531-3.42 1.753-1.703a23.566 23.566 0 0 0 1.697-1.761c2.174-2.455 4.404-4.797 6.441-7.328 2.013-2.559 3.978-5.13 5.854-7.745 1.774-2.727 3.529-5.427 5.131-8.22-2.904 1.491-5.655 3.076-8.388 4.634-2.778 1.506-5.576 2.936-8.266 4.444l-8.253 4.162c-2.746 1.344-5.529 2.592-8.257 3.874-11.014 4.976-22.104 9.125-33.279 12.476-22.349 6.677-45.098 10.075-67.896 10.104-22.8 0.009-45.556-3.392-67.913-10.061-11.179-3.35-22.27-7.506-33.284-12.485-2.727-1.283-5.506-2.538-8.254-3.88l-8.248-4.169c-2.688-1.511-5.484-2.944-8.26-4.452-2.728-1.563-5.478-3.151-8.377-4.646zM369 641.25c8.227-3.383 16.15-7.146 23.998-11.002l5.854-2.932 5.795-3.006 5.704-3.12 5.645-3.194c1.878-1.069 3.84-2.033 5.854-2.933 2.013-0.901 4.069-1.747 6.045-2.694 1.971-0.953 3.842-2.031 5.524-3.345 1.688-1.307 3.198-2.836 4.576-4.53a50.86 50.86 0 0 0 7.074-11.658c0.946-2.234 1.813-4.566 2.5-7.125 0.335-1.289 0.652-2.602 0.896-4.005 0.261-1.382 0.441-2.865 0.535-4.457l-2-2.499c-1.573-0.258-3.06-0.408-4.465-0.457-1.423-0.07-2.772-0.049-4.104-0.005-2.647 0.108-5.113 0.443-7.5 0.875a50.826 50.826 0 0 0-12.926 4.342c-1.955 0.973-3.778 2.111-5.424 3.47-1.651 1.353-3.114 2.941-4.476 4.655-1.358 1.719-2.634 3.541-3.955 5.306a67.146 67.146 0 0 1-4.146 5.067l-4.355 4.806-4.296 4.88-4.205 4.994-4.146 5.068c-5.485 6.811-10.896 13.714-16.002 20.998l2 2.501zM657 638.75c-5.106-7.284-10.517-14.187-16.002-20.998l-4.146-5.068-4.205-4.994-4.296-4.88-4.355-4.806c-1.455-1.598-2.827-3.3-4.146-5.067-1.321-1.766-2.597-3.587-3.955-5.306-1.363-1.714-2.825-3.302-4.476-4.655-1.646-1.359-3.469-2.497-5.424-3.47a50.826 50.826 0 0 0-12.926-4.342c-2.387-0.432-4.853-0.767-7.5-0.875-1.331-0.044-2.681-0.065-4.104 0.005a34.993 34.993 0 0 0-4.465 0.457l-2 2.499c0.094 1.591 0.273 3.075 0.535 4.457 0.244 1.404 0.561 2.716 0.896 4.005 0.687 2.559 1.554 4.891 2.5 7.125a50.86 50.86 0 0 0 7.074 11.658c1.378 1.694 2.888 3.223 4.576 4.53 1.682 1.314 3.553 2.392 5.524 3.345 1.976 0.947 4.033 1.793 6.045 2.694 2.014 0.899 3.976 1.864 5.854 2.933l5.645 3.194 5.704 3.12 5.795 3.006 5.854 2.932c7.848 3.856 15.771 7.62 23.998 11.002l2-2.501zM815.415 288.585c-25.936 25.936-67.308 27.022-94.542 3.265-27.234 23.757-68.605 22.672-94.542-3.265-25.896-25.896-27.019-67.181-3.376-94.416l-0.126-0.126 3.502-3.502L720.873 96l94.542 94.542 3.502 3.502-0.126 0.126c23.643 27.234 22.52 68.519-3.376 94.415z"  horiz-adv-x="1024" />

    
    <glyph glyph-name="-laohu" unicode="&#58902;" d="M885.4 484.7C949.3 507.9 995 569.3 995 641.4c0 91.9-74.4 166.5-166 166.5-59.2 0-111.2-31.1-140.6-77.9M847.6 653.3C809 701.6 737.7 759.6 737.7 759.6c-29.6-11.7-54.6-33.4-71.2-61.4l169.2-223.1c34.8 13.4 63.2 8.1 79.5 43-4.6-2.4-29 86.9-67.6 135.2zM331.7 735.9c-29.9 43.5-80 72-136.7 72-91.7 0-166-74.6-166-166.5 0-67.7 40.4-126.1 98.2-152M72.6 597.7c0 91.9 74.4 166.5 166 166.5 34.4 0 66.4-10.5 92.9-28.5l0.2 0.2c-29.9 43.5-80 72-136.7 72-91.7 0-166-74.6-166-166.5 0-57.2 28.8-107.6 72.6-137.5-18.3 26.7-29 59-29 93.8zM924.6 303.7c0-213.5-187.7-343.6-419.2-343.6S86.1 90.2 86.1 303.7s187.7 484 419.2 484 419.3-270.5 419.3-484zM731.3 697.9c80.9-95.7 131.5-221.7 131.5-332.4 0-213.5-187.7-343.6-419.2-343.6-114.8 0-218.9 32-294.6 90.4 73.9-97.1 205.9-152.2 356.4-152.2 231.5 0 419.2 130.1 419.2 343.6 0 136.8-77.1 296.8-193.3 394.2zM132.2 262.7c0 213.5 187.7 484 419.2 484 86.7 0 167.2-37.9 234-96.5-74.2 84-172.4 142.6-280.1 142.6-231.5 0-419.2-270.5-419.2-484 0-103.2 44-186.9 115.5-245.9-43.8 53.7-69.4 121.1-69.4 199.8zM505.3-68.9c-263.9 0-448.2 153.2-448.2 372.6 0 232.3 199.9 513 448.2 513s448.2-280.6 448.2-513c0.1-219.3-184.2-372.6-448.2-372.6z m0 827.6c-210.2 0-390.3-250.2-390.3-455 0-185.2 160.5-314.6 390.3-314.6s390.3 129.4 390.3 314.6c0 204.8-180.1 455-390.3 455zM885.4 455.7c-11.8 0-23 7.3-27.2 19.1-5.5 15 2.3 31.7 17.3 37.1 54.1 19.7 90.5 71.7 90.5 129.4 0 75.8-61.5 137.5-137.1 137.5-47.4 0-90.8-24.1-116-64.3-8.5-13.6-26.4-17.6-40-9.1-13.6 8.5-17.7 26.4-9.1 40 35.9 57.3 97.7 91.5 165.1 91.5 107.5 0 195-87.7 195-195.5 0-82-51.7-155.9-128.7-183.9-3.1-1.2-6.5-1.8-9.8-1.8zM127.2 460.4c-4 0-8 0.8-11.8 2.5C45.3 494.3 0 564.4 0 641.4 0 749.2 87.5 836.9 195 836.9c64.2 0 124.2-31.6 160.5-84.5 9.1-13.2 5.7-31.2-7.5-40.3-13.2-9.1-31.2-5.7-40.3 7.5C282.1 756.8 240 779 194.9 779 119.4 778.9 58 717.2 58 641.4c0-54.2 31.8-103.5 81.1-125.5 14.6-6.5 21.1-23.7 14.6-38.3-4.9-10.8-15.5-17.2-26.5-17.2zM512 451.9c-16 0-29 13-29 29V787.7c0 16 13 29 29 29s29-13 29-29v-306.8c0-16-13-29-29-29zM662.9 597.2c-7.4 0-14.9 2.8-20.5 8.5-116.6 117-257.9 12-263.8 7.5-12.7-9.7-30.9-7.2-40.6 5.5-9.7 12.7-7.2 30.9 5.5 40.6 64.4 48.9 218.3 109.3 339.9-12.7 11.3-11.3 11.3-29.7-0.1-41-5.5-5.5-13-8.4-20.4-8.4zM662.9 483.5c-7.4 0-14.9 2.8-20.5 8.5-116 116.3-257.9 11.9-263.9 7.4-12.8-9.6-30.9-7.1-40.6 5.7-9.6 12.7-7.2 30.9 5.6 40.5 64.4 48.9 218.3 109.3 339.9-12.7 11.3-11.3 11.3-29.7-0.1-41-5.5-5.6-13-8.4-20.4-8.4zM285.6 358.8a45.4 45.3 90 1 1 90.6 0 45.4 45.3 90 1 1-90.6 0ZM647.8 358.8a45.4 45.3 90 1 1 90.6 0 45.4 45.3 90 1 1-90.6 0ZM512 124c-8 0-14.5 6.5-14.5 14.5v32.4c0 19.5 7.6 37.9 21.3 51.7l29.9 30c5.6 5.7 14.8 5.7 20.5 0 5.7-5.7 5.7-14.8 0-20.5l-29.9-30c-8.2-8.2-12.9-19.6-12.9-31.2v-32.4c0.1-8-6.4-14.5-14.4-14.5zM512 124c-8 0-14.5 6.5-14.5 14.5v32.4c0 11.6-4.7 23-12.9 31.2l-29.9 30c-5.7 5.7-5.6 14.8 0 20.5 5.7 5.7 14.8 5.6 20.5 0l29.9-30c13.8-13.8 21.3-32.1 21.3-51.7v-32.4c0.1-8-6.4-14.5-14.4-14.5zM507.9 114.1c-69.7 0-113.6 38.1-114.2 38.6-6 5.3-6.5 14.5-1.2 20.5s14.5 6.5 20.4 1.2c3.5-3 83.1-70.8 200.1 1.5 6.8 4.2 15.7 2.1 19.9-4.7 4.2-6.8 2.1-15.7-4.7-19.9-44.9-27.9-85.8-37.2-120.3-37.2z"  horiz-adv-x="1024" />

    
    <glyph glyph-name="tubiaozhizuomoban-" unicode="&#59035;" d="M460.681 605.405c27.264-30.98 54.185-66.038 67.319-108.567 39.613-128.277-82.862-222.146-205.667-192.005-16.698 4.1-27.524 11.047-43.23 15.647A175.878 175.878 0 1 1 460.68 605.405zM415.584 227.724a204.79 204.79 0 0 0-145.071 60.147c-80.065 80.064-80.065 210.34-0.001 290.404 80.066 80.064 210.342 80.064 290.404 0a205.345 205.345 0 0 0 0-290.405 19 19 0 1 0-26.87 26.871 167.346 167.346 0 0 1 0 236.663c-65.247 65.248-171.414 65.25-236.664 0-65.248-65.248-65.248-171.415 0-236.664a166.84 166.84 0 0 1 124.183-48.913 168.144 168.144 0 0 1 38.755 5.92 169.634 169.634 0 0 1 5.44 1.597 19 19 0 0 0 11.317-36.276c-2.199-0.686-4.44-1.344-6.664-1.957a206.118 206.118 0 0 0-47.528-7.26q-3.655-0.128-7.301-0.127zM657.144 172.644a18.94 18.94 0 0 0-13.435 5.565L534.047 287.871a19 19 0 0 0 26.869 26.87l109.662-109.663a19 19 0 0 0-13.434-32.434z"  horiz-adv-x="1024" />

    
    <glyph glyph-name="tubiaozhizuomoban-1" unicode="&#59042;" d="M738.716 597.157c13.287-27.178 16.17-45.177 16.034-65.486-9.342 28.183-25.29 53.332-52.016 82.517 24.443-49.999 13.68-68.928 13.68-128.33 0-208.503-169.025-377.527-377.527-377.527a381.539 381.539 0 0 0-43.884 2.526 336.512 336.512 0 0 1 58.726-18.968q-11.465 0.634-22.745 1.938A337.844 337.844 0 0 1 464.2 66.639c187.194 0 338.944 151.75 338.944 338.943 0 88.208-9.209 131.276-64.428 191.575zM486.488 40.104a340.704 340.704 0 0 0-205.52 68.225 19 19 0 1 0 22.741 30.443 305.904 305.904 0 1 1 182.954 551.124c-0.876 0-1.749-0.004-2.627-0.01A306.027 306.027 0 0 1 213.613 245.8c2.3-4.533 4.746-9.07 7.27-13.481a307.732 307.732 0 0 1 14.252-22.566 19 19 0 1 0-31.214-21.672A345.43 345.43 0 0 0 187.9 213.45a345.019 345.019 0 0 0-8.175 15.159 343.967 343.967 0 1 0 622.6 291.9 343.799 343.799 0 0 0-312.86-480.392c-0.99-0.01-1.988-0.013-2.977-0.013zM620.834 368.895h-0.031l-289.894 0.455a19 19 0 0 0 0.03 38h0.03l289.894-0.455a19 19 0 0 0-0.029-38z"  horiz-adv-x="1024" />

    
    <glyph glyph-name="tubiaozhizuomoban-2" unicode="&#59043;" d="M787.937 604.157c13.288-27.178 16.17-45.177 16.035-65.486-9.343 28.183-25.29 53.332-52.017 82.517 24.444-49.999 13.68-68.928 13.68-128.33 0-208.503-169.024-377.527-377.527-377.527a381.539 381.539 0 0 0-43.884 2.526 336.512 336.512 0 0 1 58.727-18.968q-11.466 0.634-22.745 1.938a337.844 337.844 0 0 1 133.216-27.188c187.194 0 338.944 151.75 338.944 338.943 0 88.208-9.209 131.276-64.429 191.575zM533.47 53.548a340.731 340.731 0 0 0-205.526 68.225 19 19 0 0 0 22.743 30.443 303.065 303.065 0 0 1 182.793-60.668c0.884 0 1.76 0.004 2.645 0.011a305.896 305.896 0 0 1-2.484 611.782c-0.877 0-1.75-0.004-2.627-0.01A306.027 306.027 0 0 1 260.59 259.247a305.785 305.785 0 0 1 21.522-36.046 19 19 0 1 0-31.213-21.674 345.577 345.577 0 0 0-16.022 25.368 343.935 343.935 0 0 0-8.176 15.16 343.967 343.967 0 1 0 622.6 291.898A343.8 343.8 0 0 0 536.443 53.56c-0.99-0.009-1.983-0.013-2.972-0.013zM667.81 382.34h-0.03l-289.894 0.455a19 19 0 0 0 0.03 38h0.03l289.894-0.456a19 19 0 0 0-0.03-38zM522.18 237.848h-0.032a19 19 0 0 0-18.97 19.03l0.457 289.895a19 19 0 0 0 18.999 18.97h0.031a19 19 0 0 0 18.97-19.03l-0.456-289.895a19 19 0 0 0-19-18.97z"  horiz-adv-x="1024" />

    
    <glyph glyph-name="tubiaozhizuomoban-3" unicode="&#59044;" d="M760.18 627.696c15.36-26.064 19.632-43.784 21.075-64.042-11.504 27.372-29.358 51.205-58.272 78.224 28.255-47.947 18.996-67.656 23.613-126.879 16.206-207.872-139.17-389.522-347.041-405.729a381.539 381.539 0 0 0-43.948-0.892 336.512 336.512 0 0 1 60.024-14.346q-11.48-0.258-22.827 0.164a337.844 337.844 0 0 1 134.926-16.751c186.627 14.55 326.123 177.636 311.574 364.263-6.856 87.94-19.385 130.163-79.124 185.988zM511.896 49.546a340.71 340.71 0 0 0-205.52 68.224 19 19 0 1 0 22.741 30.443 303.058 303.058 0 0 1 182.79-60.667c0.883 0 1.763 0.004 2.648 0.01a305.896 305.896 0 0 1-2.483 611.782c-0.877 0-1.75-0.004-2.627-0.01a306.026 306.026 0 0 1-270.424-444.085 306.154 306.154 0 0 1 7.271-13.481 306.948 306.948 0 0 1 14.252-22.565 19 19 0 1 0-31.215-21.672 345.597 345.597 0 0 0-16.021 25.368 344.216 344.216 0 0 0-8.176 15.16 343.798 343.798 0 0 0 303.995 499.272c0.986 0.01 1.98 0.013 2.964 0.013a343.895 343.895 0 0 0 2.782-687.78c-0.99-0.008-1.988-0.012-2.977-0.012zM615.607 265.775a18.946 18.946 0 0 0-13.754 5.888L498.248 380.33A19.006 19.006 0 0 0 493 393.442V538.109a19 19 0 0 0 38 0v-137.06l98.356-103.163a19 19 0 0 0-13.749-32.111z"  horiz-adv-x="1024" />

    
    <glyph glyph-name="tubiaozhizuomoban-4" unicode="&#59045;" d="M758.593 237.184a38.802 38.802 0 0 0-33.684-19.527H603.735v-70h117.174a38.826 38.826 0 0 1 38.826 38.826V227.83a38.902 38.902 0 0 1-1.142 9.353zM312.561 217.657a38.837 38.837 0 0 0-37.685 29.473 38.632 38.632 0 0 1-5.141-19.3v-41.347a38.826 38.826 0 0 1 38.826-38.826h104.174v70zM757.305 169.017a38.802 38.802 0 0 0-33.685-19.527H602.446v-70H719.62a38.826 38.826 0 0 1 38.826 38.826v41.348a38.902 38.902 0 0 1-1.141 9.353zM311.272 149.49a38.837 38.837 0 0 0-37.684 29.473 38.632 38.632 0 0 1-5.142-19.3v-41.347a38.826 38.826 0 0 1 38.826-38.826h104.174v70zM191.015 445.999a19 19 0 0 0-11.367 34.237l281.22 209.508a83.48 83.48 0 0 0 30.238 16.242c17.495 5.117 44.45 6.504 73.511-15.952C607.987 656.521 842 481.99 844.358 480.23a19 19 0 1 0-22.716-30.46c-2.362 1.76-236.635 176.486-280.26 210.196-12.95 10.006-25.514 13.241-38.41 9.879a45.685 45.685 0 0 1-17.145-8.754 13.5 13.5 0 0 0-1.596-1.327l-281.88-210a18.92 18.92 0 0 0-11.336-3.765zM704.93 45.513a81.539 81.539 0 0 0-9.138 0.487H337c-32.437 0-57.223 9.72-73.67 28.893-22.55 26.284-20.243 61.086-19.33 69.274V407.372a19 19 0 0 0 38 0V143a16.259 16.259 0 0 0-0.21-2.828c-0.17-1.321-2.984-25.161 10.532-40.713C301.24 89.201 316.271 84 337 84h360a15.542 15.542 0 0 0 3.036-0.242c1.339-0.178 19.954-2.365 32.836 9.003 10.568 9.326 15.66 26.087 15.133 49.817-1.984 89.29 0.016 263.27 0.037 265.017a19 19 0 1 0 37.998-0.446c-0.02-1.74-2.015-175.082-0.045-263.727 0.795-35.751-8.781-62.525-28.462-79.575-18.042-15.631-39.752-18.333-52.602-18.334zM596.714 46.332l-0.226 0.001-190.987 2.22a19 19 0 0 0-18.778 19.22l2.913 250.496a18.98 18.98 0 0 0 19.22 18.778l190.987-2.22a19 19 0 0 0 18.778-19.22l-2.913-250.496a19 19 0 0 0-18.994-18.779zM424.94 86.33l152.99-1.778 2.471 212.498-152.99 1.778z"  horiz-adv-x="1024" />

    
    </font>
</defs>
</svg>
